<?xml version="1.0" encoding="utf-8"?>
<!-- Generator: Adobe Illustrator 18.1.1, SVG Export Plug-In . SVG Version: 6.00 Build 0)  -->
<!DOCTYPE svg PUBLIC "-//W3C//DTD SVG 1.1//EN" "http://www.w3.org/Graphics/SVG/1.1/DTD/svg11.dtd">
<svg version="1.1" xmlns="http://www.w3.org/2000/svg" xmlns:xlink="http://www.w3.org/1999/xlink" x="0px" y="0px" width="13.1px"
	 height="32px" viewBox="0 0 13.1 32" enable-background="new 0 0 13.1 32" xml:space="preserve">
<g id="bkdg" display="none" opacity="0.1">
	<rect x="-9" y="0" display="inline" opacity="0.2" fill="#FF00FF" width="32" height="32"/>
</g>
<g id="Layer_1">
	<g>
		<path fill="#3E3832" d="M6.5,5.2C7.9,5.2,9,4,9,2.6c0-1.4-1.1-2.6-2.5-2.6C5.1,0.1,4,1.2,4,2.6C4,4,5.1,5.2,6.5,5.2z"/>
		<path fill="#3E3832" d="M8.5,5.9L7,5.9l-0.5,0h0h0L6,5.9l-1.5,0C2.3,6.1,0,7.7,0,10v7.6c0,0.6,0.4,1.1,1,1.1s1-0.5,1-1.1v-6
			c0-0.3,0.2-0.5,0.5-0.5c0.3,0,0.5,0.2,0.5,0.5v18.9c0,0.8,0.7,1.5,1.5,1.5c0.8,0,1.5-0.7,1.5-1.5v-12c0-0.3,0.2-0.5,0.5-0.5
			S7,18.3,7,18.6v12c0,0.8,0.7,1.5,1.5,1.5c0.8,0,1.5-0.7,1.5-1.5V11.7c0-0.3,0.2-0.5,0.5-0.5c0.3,0,0.5,0.2,0.5,0.5v6
			c0,0.6,0.4,1.1,1,1.1c0.6,0,1-0.5,1-1.1V10C13,7.7,10.7,6.1,8.5,5.9z"/>
	</g>
</g>
</svg>
