<?xml version="1.0" encoding="utf-8"?>
<!-- Generator: Adobe Illustrator 17.0.0, SVG Export Plug-In . SVG Version: 6.00 Build 0)  -->
<!DOCTYPE svg PUBLIC "-//W3C//DTD SVG 1.1//EN" "http://www.w3.org/Graphics/SVG/1.1/DTD/svg11.dtd">
<svg version="1.1" id="Layer_1" xmlns="http://www.w3.org/2000/svg" xmlns:xlink="http://www.w3.org/1999/xlink" x="0px" y="0px"
	 width="32px" height="32px" viewBox="0 0 32 32" enable-background="new 0 0 32 32" xml:space="preserve">
<g id="grid">
</g>
<g id="Layer_2">
</g>
<g id="Layer_3">
	<path fill="#0FBA47" d="M16,0C7.163,0,0,7.164,0,16c0,8.837,7.163,16,16,16s16-7.163,16-16C32,7.164,24.837,0,16,0z M15.795,5.875
		c1.407,0,2.547,1.14,2.547,2.547c0,1.406-1.141,2.547-2.547,2.547s-2.547-1.141-2.547-2.547
		C13.249,7.015,14.389,5.875,15.795,5.875z M19,25.021v1h-1h-1h-1h-1h-1h-1h-1v-1v-1h1h1v-1v-1v-1v-1v-1v-1v-1v-1v-1V15h-1h-1v-1v-1
		h1h1h1h1h1h1v1v0.021V15v0.021v1v1v1v1v1v1v1v1v1h1V25.021z"/>
</g>
</svg>
