<?xml version="1.0" encoding="utf-8"?>
<!-- Generator: Adobe Illustrator 17.0.0, SVG Export Plug-In . SVG Version: 6.00 Build 0)  -->
<!DOCTYPE svg PUBLIC "-//W3C//DTD SVG 1.1//EN" "http://www.w3.org/Graphics/SVG/1.1/DTD/svg11.dtd">
<svg version="1.1" id="Layer_1" xmlns="http://www.w3.org/2000/svg" xmlns:xlink="http://www.w3.org/1999/xlink" x="0px" y="0px"
	 width="26px" height="26px" viewBox="0 0 26 26" enable-background="new 0 0 26 26" xml:space="preserve">
<g id="Layer_3">
	<path fill="#F78F38" d="M13,0C5.82,0,0,5.821,0,13c0,7.18,5.82,13,13,13s13-5.82,13-13C26,5.821,20.18,0,13,0z M13.302,5.711
		c0.884,0,1.601,0.716,1.601,1.601c0,0.884-0.717,1.601-1.601,1.601c-0.884,0-1.601-0.717-1.601-1.601
		C11.702,6.427,12.419,5.711,13.302,5.711z M16,20h-5v-1h1v-7.996L10.978,11l-0.009-1H15v9h1V20z"/>
</g>
</svg>
