<?xml version="1.0" encoding="utf-8"?>
<!-- Generator: Adobe Illustrator 17.0.0, SVG Export Plug-In . SVG Version: 6.00 Build 0)  -->
<!DOCTYPE svg PUBLIC "-//W3C//DTD SVG 1.1//EN" "http://www.w3.org/Graphics/SVG/1.1/DTD/svg11.dtd">
<svg version="1.1" id="Layer_1" xmlns="http://www.w3.org/2000/svg" xmlns:xlink="http://www.w3.org/1999/xlink" x="0px" y="0px"
	 width="127px" height="92px" viewBox="0 0 127 92" enable-background="new 0 0 127 92" xml:space="preserve">
<rect x="23.932" y="11.898" fill="#0EA8E1" width="79.321" height="51.558"/>
<path fill="#0EA8E1" d="M105.236,75.355H21.949c-5.467,0-9.915-4.446-9.915-9.915V9.915C12.034,4.448,16.482,0,21.949,0h83.287
	c5.467,0,9.915,4.448,9.915,9.915V65.44C115.151,70.908,110.703,75.355,105.236,75.355z M21.949,3.966
	C18.669,3.966,16,6.635,16,9.915V65.44c0,3.281,2.669,5.949,5.949,5.949h83.287c3.28,0,5.949-2.669,5.949-5.949V9.915
	c0-3.28-2.669-5.949-5.949-5.949H21.949z"/>
<path fill="#0EA8E1" d="M0.136,80.102v3.966C0.136,88.449,3.687,92,8.068,92h111.049c4.381,0,7.932-3.551,7.932-7.932v-3.966H0.136z
	 M69.541,88.034H57.643c-1.095,0-1.983-0.888-1.983-1.983c0-1.095,0.888-1.983,1.983-1.983h11.898c1.095,0,1.983,0.888,1.983,1.983
	C71.524,87.146,70.637,88.034,69.541,88.034z"/>
</svg>
