<?xml version="1.0" encoding="utf-8"?>
<!-- Generator: Adobe Illustrator 17.0.0, SVG Export Plug-In . SVG Version: 6.00 Build 0)  -->
<!DOCTYPE svg PUBLIC "-//W3C//DTD SVG 1.1//EN" "http://www.w3.org/Graphics/SVG/1.1/DTD/svg11.dtd">
<svg version="1.1" id="Layer_1" xmlns="http://www.w3.org/2000/svg" xmlns:xlink="http://www.w3.org/1999/xlink" x="0px" y="0px"
	 width="32px" height="32px" viewBox="0 0 32 32" enable-background="new 0 0 32 32" xml:space="preserve">
<g>
	<path fill="#F28B11" d="M13.891,13.979c-0.368,0.825-0.736,1.648-1.117,2.501c0.45,0.236,0.873,0.459,1.384,0.729
		c-0.066-1.131-0.128-2.177-0.19-3.223C13.942,13.984,13.917,13.982,13.891,13.979z"/>
	<path fill="#F28B11" d="M16,0C7.163,0,0,7.164,0,16s7.163,16,16,16s16-7.164,16-16S24.837,0,16,0z M13.059,24.21
		c1.242-1.592,2.416-3.097,3.625-4.649c-1.453-0.765-2.866-1.51-4.383-2.311c0.031,0.233,0.027,0.352,0.063,0.458
		c0.664,1.947,0.588,3.967,0.591,5.979c0.001,0.444-0.13,0.561-0.573,0.55c-1.433-0.04-1.241-0.187-1.246-1.259
		c-0.001-0.152-0.011-0.305-0.001-0.455c0.112-1.704-0.195-3.35-0.723-5.033c-0.091,0.144-0.172,0.257-0.241,0.377
		c-1.029,1.812-2.056,3.621-3.084,5.433c-0.074,0.132-0.147,0.265-0.234,0.389c-0.328,0.471-0.546,0.506-1.019,0.173
		c-0.759-0.533-0.803-0.707-0.343-1.515c1.18-2.072,2.363-4.145,3.546-6.217c0.26-0.454,0.259-0.462-0.209-0.708
		c-0.158-0.084-0.317-0.166-0.475-0.251c-0.189-0.101-0.371-0.271-0.572-0.01c-0.031,0.041-0.129,0.051-0.193,0.045
		c-0.52-0.044-1.016-0.912-0.777-1.376c0.398-0.771,0.811-1.535,1.218-2.302c0.239-0.451,0.492-0.895,0.714-1.354
		C8.902,9.846,9.131,9.716,9.495,9.72c1.463,0.013,2.926,0.005,4.389,0.004c0.082,0,0.164-0.006,0.27-0.012
		c-0.294-1.168-0.062-1.958,0.687-2.427c0.621-0.39,1.4-0.336,1.965,0.137c0.604,0.503,0.818,1.398,0.516,2.149
		c-0.313,0.779-0.981,1.16-1.96,1.096c0.127,2.429,0.253,4.855,0.385,7.381c0.401,0.212,0.934,0.494,1.5,0.792
		c0.368-0.471,0.741-0.927,1.093-1.402c0.232-0.316,0.521-0.471,0.912-0.468c0.842,0.005,1.685-0.031,2.524,0.01
		c0.258,0.014,0.59,0.154,0.746,0.349c1.712,2.164,3.398,4.349,5.087,6.531c0.061,0.079,0.087,0.185,0.163,0.352
		C22.861,24.21,18.024,24.21,13.059,24.21z"/>
	<path fill="#F28B11" d="M9.891,11.623c-0.077,0.003-0.183,0.074-0.22,0.143c-0.429,0.792-0.847,1.589-1.278,2.404
		c0.41,0.215,0.782,0.41,1.195,0.627c0.481-1.079,0.938-2.103,1.419-3.181C10.596,11.616,10.244,11.607,9.891,11.623z"/>
</g>
</svg>
