<?xml version="1.0" encoding="utf-8"?>
<!-- Generator: Adobe Illustrator 17.0.0, SVG Export Plug-In . SVG Version: 6.00 Build 0)  -->
<!DOCTYPE svg PUBLIC "-//W3C//DTD SVG 1.1//EN" "http://www.w3.org/Graphics/SVG/1.1/DTD/svg11.dtd">
<svg version="1.1" id="Layer_1" xmlns="http://www.w3.org/2000/svg" xmlns:xlink="http://www.w3.org/1999/xlink" x="0px" y="0px"
	 width="32px" height="32px" viewBox="0 0 32 32" enable-background="new 0 0 32 32" xml:space="preserve">
<path fill="#BDBCBA" d="M16,0C7.163,0,0,7.163,0,16s7.163,16,16,16c8.838,0,16-7.164,16-16S24.838,0,16,0z M24.687,13.946
	l-9.756,9.757c-0.862,0.863-2.131,1.358-3.481,1.358h-0.001c-1.441,0-2.83-0.562-3.811-1.544c-1.966-1.968-2-5.257-0.075-7.183
	l8.395-8.395l1.056,1.057L8.62,17.391c-1.181,1.181-1.44,3.554,0.075,5.07c0.703,0.703,1.707,1.106,2.754,1.106l0,0
	c0.957,0,1.84-0.335,2.424-0.92l9.757-9.757c0.822-0.823,0.981-2.499-0.106-3.587c-1.07-1.068-2.785-0.946-3.607-0.126l-7.106,7.107
	c-0.413,0.401-0.63,0.851-0.636,1.308c-0.005,0.399,0.154,0.794,0.438,1.085c0.303,0.31,0.657,0.467,1.053,0.467
	c0,0,0.001,0,0.002,0c0.509,0,1.042-0.262,1.501-0.734l5.582-5.653l1.062,1.05l-5.577,5.648c-0.739,0.761-1.651,1.183-2.567,1.184
	c-0.001,0-0.003,0-0.004,0c-0.802,0-1.536-0.317-2.122-0.918c-0.559-0.572-0.873-1.355-0.862-2.147
	c0.011-0.863,0.385-1.676,1.081-2.352l7.1-7.1c1.49-1.487,4.161-1.429,5.72,0.126C26.125,9.793,26.175,12.457,24.687,13.946z"/>
</svg>
