<?xml version="1.0" encoding="utf-8"?>
<!-- Generator: Adobe Illustrator 21.0.2, SVG Export Plug-In . SVG Version: 6.00 Build 0)  -->
<svg version="1.1" id="Layer_1" xmlns="http://www.w3.org/2000/svg" xmlns:xlink="http://www.w3.org/1999/xlink" x="0px" y="0px"
	 viewBox="0 0 34.7 33" style="enable-background:new 0 0 34.7 33;" xml:space="preserve">
<style type="text/css">
	.st0{fill:none;stroke:#3e3832;stroke-linejoin:round;stroke-miterlimit:10;}
</style>
<path class="st0" d="M10.7,20.5c-0.7-0.1-1.4-0.2-2.1-0.5L1.2,23l3-5.1c-2.3-1.8-3.7-4.5-3.7-7.3C0.5,5,6.1,0.5,13,0.5
	C20,0.5,25.6,5,25.6,10.6"/>
<path class="st0" d="M13.5,22.3c0,6.3,7.4,11,14.1,8l5.9,2.2l-2.2-4.4c1.9-1.5,3-3.5,3-5.9c0-4.6-4.6-8.8-10.4-8.8
	C18.1,13.5,13.5,17.6,13.5,22.3z"/>
</svg>
