<?xml version="1.0" encoding="utf-8"?>
<!-- Generator: Adobe Illustrator 21.0.2, SVG Export Plug-In . SVG Version: 6.00 Build 0)  -->
<svg version="1.1" id="Layer_1" xmlns="http://www.w3.org/2000/svg" xmlns:xlink="http://www.w3.org/1999/xlink" x="0px" y="0px"
	 viewBox="0 0 31.3 31.6" style="enable-background:new 0 0 31.3 31.6;" xml:space="preserve">
<style type="text/css">
	.st0{fill:none;stroke:#000000;stroke-linecap:round;stroke-linejoin:round;stroke-miterlimit:10;}
	.st1{clip-path:url(#SVGID_2_);}
	.st2{clip-path:url(#SVGID_4_);}
	.st3{clip-path:url(#SVGID_6_);}
	.st4{clip-path:url(#SVGID_8_);}
	.st5{clip-path:url(#SVGID_10_);}
	.st6{clip-path:url(#SVGID_12_);}
	.st7{clip-path:url(#SVGID_14_);}
	.st8{clip-path:url(#SVGID_16_);}
</style>
<line class="st0" x1="21.2" y1="2.5" x2="21.2" y2="0.5"/>
<line class="st0" x1="15.8" y1="2.5" x2="15.8" y2="0.5"/>
<line class="st0" x1="10.5" y1="2.5" x2="10.5" y2="0.5"/>
<line class="st0" x1="5.2" y1="2.5" x2="5.2" y2="0.5"/>
<g>
	<defs>
		<rect id="SVGID_1_" x="3.8" y="2.5" width="2.7" height="2.7"/>
	</defs>
	<clipPath id="SVGID_2_">
		<use xlink:href="#SVGID_1_"  style="overflow:visible;"/>
	</clipPath>
	<g class="st1">
		<defs>
			<rect id="SVGID_3_" x="-496.2" y="-1109.2" width="1024" height="2089"/>
		</defs>
		<clipPath id="SVGID_4_">
			<use xlink:href="#SVGID_3_"  style="overflow:visible;"/>
		</clipPath>
		<rect x="-1.2" y="-2.5" class="st2" width="12.7" height="12.7"/>
	</g>
</g>
<g>
	<defs>
		<rect id="SVGID_5_" x="9.2" y="2.5" width="2.7" height="2.7"/>
	</defs>
	<clipPath id="SVGID_6_">
		<use xlink:href="#SVGID_5_"  style="overflow:visible;"/>
	</clipPath>
	<g class="st3">
		<defs>
			<rect id="SVGID_7_" x="-496.2" y="-1109.2" width="1024" height="2089"/>
		</defs>
		<clipPath id="SVGID_8_">
			<use xlink:href="#SVGID_7_"  style="overflow:visible;"/>
		</clipPath>
		<rect x="4.2" y="-2.5" class="st4" width="12.7" height="12.7"/>
	</g>
</g>
<g>
	<defs>
		<rect id="SVGID_9_" x="19.8" y="2.5" width="2.7" height="2.7"/>
	</defs>
	<clipPath id="SVGID_10_">
		<use xlink:href="#SVGID_9_"  style="overflow:visible;"/>
	</clipPath>
	<g class="st5">
		<defs>
			<rect id="SVGID_11_" x="-496.2" y="-1109.2" width="1024" height="2089"/>
		</defs>
		<clipPath id="SVGID_12_">
			<use xlink:href="#SVGID_11_"  style="overflow:visible;"/>
		</clipPath>
		<rect x="14.8" y="-2.5" class="st6" width="12.7" height="12.7"/>
	</g>
</g>
<g>
	<defs>
		<rect id="SVGID_13_" x="14.5" y="2.5" width="2.7" height="2.7"/>
	</defs>
	<clipPath id="SVGID_14_">
		<use xlink:href="#SVGID_13_"  style="overflow:visible;"/>
	</clipPath>
	<g class="st7">
		<defs>
			<rect id="SVGID_15_" x="-496.2" y="-1109.2" width="1024" height="2089"/>
		</defs>
		<clipPath id="SVGID_16_">
			<use xlink:href="#SVGID_15_"  style="overflow:visible;"/>
		</clipPath>
		<rect x="9.5" y="-2.5" class="st8" width="12.7" height="12.7"/>
	</g>
</g>
<polyline class="st0" points="12.5,27.2 0.5,27.2 0.5,0.5 25.8,0.5 25.8,13.2 "/>
<polyline class="st0" points="30.5,19.8 30.5,23.2 27.2,23.2 "/>
<path class="st0" d="M18.8,23.2c0.8-2.3,3-4,5.7-4s5.1,1.6,5.9,4"/>
<polyline class="st0" points="19.2,30.5 19.2,27.1 22.5,27.1 "/>
<path class="st0" d="M30.8,27.1c-0.8,2.3-3,4-5.7,4s-5.1-1.6-5.9-4"/>
</svg>
