<?xml version="1.0" encoding="utf-8"?>
<!-- Generator: Adobe Illustrator 21.0.2, SVG Export Plug-In . SVG Version: 6.00 Build 0)  -->
<svg version="1.1" id="Layer_1" xmlns="http://www.w3.org/2000/svg" xmlns:xlink="http://www.w3.org/1999/xlink" x="0px" y="0px"
	 viewBox="0 0 33 33" style="enable-background:new 0 0 33 33;" xml:space="preserve">
<style type="text/css">
	.st0{fill:none;stroke:#000000;stroke-linejoin:round;stroke-miterlimit:10;}
</style>
<path class="st0" d="M13.7,20.7c0,0-2.1-0.7-2.1-4.2c-1.1,0-1.1-2.8,0-2.8c0-0.5-2.1-5.6,1.4-4.9c0.7-2.8,8.3-2.8,9,0
	c0.5,1.9-0.7,4.5-0.7,4.9c1.1,0,1.1,2.8,0,2.8c0,3.5-2.1,4.2-2.1,4.2v3.5c3.4,1.3,6.9,2.4,8.6,3.6c2.9-2.9,4.6-6.9,4.6-11.2
	c0-8.8-7.2-16-16-16c-8.8,0-16,7.2-16,16c0,4.4,1.8,8.4,4.6,11.3c1.9-1.3,5.5-2.4,8.6-3.6V20.7z"/>
<path class="st0" d="M5.1,27.8c2.9,2.9,6.9,4.7,11.4,4.7c4.5,0,8.5-1.8,11.4-4.8"/>
</svg>
