<svg xmlns="http://www.w3.org/2000/svg" xmlns:xlink="http://www.w3.org/1999/xlink" width="54" height="70" viewBox="0 0 54 70">
    <defs>
        <path id="a" d="M0 11.657v54.806C0 68.416 1.57 70 3.51 70h46.983C52.429 70 54 68.416 54 66.463V3.537C54 1.584 52.43 0 50.493 0H12.212L0 11.657z"/>
    </defs>
    <g fill="none" fill-rule="evenodd">
        <g>
            <mask id="b" fill="#fff">
                <use xlink:href="#a"/>
            </mask>
        </g>
        <path fill="#C9C9C9" d="M12.323 0v8.124a3.54 3.54 0 0 1-3.541 3.541H0L12.323 0z"/>
        <g fill="#515658">
            <path d="M32.117 50.415V32.36H19v3.545h2.902v14.51H19v3.545h16.018v-3.545zM27.01 29.337a6.17 6.17 0 1 0-.001-12.339 6.17 6.17 0 0 0 0 12.339"/>
        </g>
    </g>
</svg>
