<svg width="23" height="23" xmlns="http://www.w3.org/2000/svg">
    <g fill="none" fill-rule="evenodd">
        <path d="M11.696-.004l-.205.002A11.716 11.716 0 0 0 3.33 3.504C1.13 5.727-.05 8.637.002 11.7c.11 6.337 5.075 11.302 11.303 11.302l.203-.002c6.446-.111 11.602-5.362 11.49-11.7C22.889 4.96 17.924-.005 11.697-.005z"
              fill="#FFB249" fill-rule="nonzero"/>
        <path d="M11 5.996a.5.5 0 0 1 1 0v7a.5.5 0 0 1-1 0v-7zM11.518 17.496H11.5a1 1 0 0 1-.018-1.999l.018-.001a1 1 0 0 1 .018 2z"
              fill="#3E3832"/>
    </g>
</svg>