<?xml version="1.0" encoding="UTF-8"?>
<svg width="18px" height="18px" viewBox="0 0 24 23" version="1.1" xmlns="http://www.w3.org/2000/svg" xmlns:xlink="http://www.w3.org/1999/xlink">
    <!-- Generator: Sketch 49 (51002) - http://www.bohemiancoding.com/sketch -->
    <title>icon/line/hardware/ printer</title>
    <desc>Created with Sketch.</desc>
    <defs>
        <path d="M22.9992695,15.8474799 C22.9992695,16.6743608 22.3257852,17.3463842 21.5003652,17.3463842 L19.0007305,17.3463842 L19.0007305,14.8467495 C19.0007305,14.5706355 18.7742878,14.3471147 18.4996348,14.3471147 L5.49890431,14.3471147 C5.22425128,14.3471147 4.99926954,14.5706355 4.99926954,14.8467495 L4.99926954,17.3463842 L2.49963477,17.3463842 C1.67275383,17.3463842 0.99926954,16.6743608 0.99926954,15.8474799 L0.99926954,9.84747991 C0.99926954,9.02059898 1.67275383,8.34711468 2.49963477,8.34711468 L21.5003652,8.34711468 C22.3257852,8.34711468 22.9992695,9.02059898 22.9992695,9.84747991 L22.9992695,15.8474799 Z M6,22.3471147 L18,22.3471147 L18,15.3463842 L6,15.3463842 L6,22.3471147 Z M21.5003652,7.34784514 C22.8780131,7.34784514 24,8.46983199 24,9.84747991 L24,15.8474799 C24,17.2251278 22.8780131,18.3471147 21.5003652,18.3471147 L19.0007305,18.3471147 L19.0007305,22.8467495 C19.0007305,23.1228634 18.7742878,23.3478451 18.4996348,23.3478451 L5.49890431,23.3478451 C5.22425128,23.3478451 4.99926954,23.1228634 4.99926954,22.8467495 L4.99926954,18.3471147 L2.49963477,18.3471147 C1.12052593,18.3471147 0,17.2251278 0,15.8474799 L0,9.84747991 C0,8.46983199 1.12052593,7.34784514 2.49963477,7.34784514 L21.5003652,7.34784514 Z M6.34769905,2.00803506 L6.34769905,5.91891892 L5.33966399,5.91891892 L5.33966399,1.50401753 C5.33966399,1.22498174 5.56464573,1 5.84368152,1 L18.8867787,1 C19.1643535,1 19.3893353,1.22498174 19.3893353,1.50401753 L19.3893353,5.91891892 L18.3827611,5.91891892 L18.3827611,2.00803506 L6.34769905,2.00803506 Z" id="path-1"></path>
    </defs>
    <g id="Kvittering-2.0-(GjennopptaEttersendelse)" stroke="none" stroke-width="1" fill="none" fill-rule="evenodd">
        <g id="KvitteringEttersendelseDesktop" transform="translate(-936.000000, -408.000000)">
            <g id="søknad" transform="translate(320.000000, 406.000000)">
                <g id="icon/line/hardware/-printer" transform="translate(616.000000, 1.000000)">
                    <mask id="mask-2" fill="white">
                        <use xlink:href="#path-1"></use>
                    </mask>
                    <use id="Mask" fill="#3E3832" fill-rule="evenodd" xlink:href="#path-1"></use>
                    <g id="interaksjonsfarge/-interaksjon" mask="url(#mask-2)" fill="#0067C5" fill-rule="evenodd">
                        <g transform="translate(12.000000, 12.000000) scale(1, -1) translate(-12.000000, -12.000000) " id="Rectangle-3">
                            <rect x="0" y="0" width="24" height="24"></rect>
                        </g>
                    </g>
                </g>
            </g>
        </g>
    </g>
</svg>