<svg xmlns="http://www.w3.org/2000/svg" xmlns:xlink="http://www.w3.org/1999/xlink" width="54" height="93" viewBox="0 0 54 93">
    <defs>
        <path id="a" d="M38.68.18C44.676 3.128 54 11.116 54 18.523V43H0V18.523C0 11.376 8.531 3.689 14.458.509c-.3.183-.458.294-.458.294C15.021 2.493 17.766 10 26.376 10 34.99 10 39 1.941 39 .366a26.67 26.67 0 0 0-.32-.186z"/>
        <path id="c" d="M1.589 30.72a.541.541 0 0 0 .081-.273v-2c-.144-5.564 1.786-8.148 3.374-10.11 0 0-.965 4.275-.294 3.385 3.8-5.02 21.4-1.581 25.05-8.06.46 3.567-4.148 4.643-4.148 4.643 3.673.696 6.855-.784 7.718-2.542.283 1.433-.589 2.384-1.865 3.364 4.514-.855 4.587-3.966 4.587-3.966.643 4.127 5.27 2.542 5.27 9.298v5.988c0 .306.244.553.546.553h.54a.55.55 0 0 0 .545-.553v-4.448C43.273 10.42 34.5 0 22.423 0 10.894 0 0 10.39.006 24.143c-.001.011-.007.023-.007.035v6.269c0 .306.244.553.544.553h.58c.167 0 .31-.08.41-.198"/>
    </defs>
    <g fill="none" fill-rule="evenodd">
        <path fill="#E7E5E2" d="M14 50.673C15.021 52.306 17.89 81 26.5 81 35.112 81 39 51.772 39 50.251c-13.185-7.553-25 .422-25 .422z"/>
        <g transform="translate(0 50)">
            <mask id="b" fill="#fff">
                <use xlink:href="#a"/>
            </mask>
            <use fill="#D8A25D" xlink:href="#a"/>
            <g mask="url(#b)">
                <path fill="#5C4378" d="M-33 72H93V-28H-33z"/>
            </g>
        </g>
        <path fill="#E7E5E2" d="M47.215 35.28c-2.498 10.303-10.6 17.852-20.211 17.852-9.611 0-17.714-7.55-20.21-17.855-.244.09-.512.141-.794.141-1.103 0-2-.771-2-1.726v-6.965C4 25.772 4.897 25 6 25c.074 0 .147.003.218.01C7.691 13.128 16.435 4 27.004 4c10.568 0 19.314 9.127 20.787 21.01.068-.007.138-.01.209-.01 1.105 0 2 .772 2 1.727v6.965c0 .955-.895 1.726-2 1.726a2.27 2.27 0 0 1-.785-.138z"/>
        <g>
            <path fill="#635E59" d="M20.343 26.19c-1.447.08-1.852-1.45-1.416-2.447.082-.19.56-1.05 1.409-1.05.847 0 1.22.47 1.273.551.623.973.318 2.861-1.266 2.946M35.492 26.19c1.447.08 1.852-1.45 1.417-2.447-.083-.19-.562-1.05-1.41-1.05-.847 0-1.22.47-1.273.551-.623.973-.317 2.861 1.266 2.946"/>
            <path stroke="#D1BFA3" stroke-linecap="round" d="M28.8 28.84c.865-.133 1.708-.1 2.104.385.965 1.186.688 2.555-.937 3.566-.812.506-1.962.713-2.667.4"/>
            <path stroke="#593A32" stroke-linecap="round" stroke-width="1.013" d="M22.114 38.817s.738.851 2.793.835l2.056-.016"/>
        </g>
        <g>
            <g transform="translate(5)">
                <mask id="d" fill="#fff">
                    <use xlink:href="#c"/>
                </mask>
                <use fill="#F6B873" xlink:href="#c"/>
                <g fill="#F6B873" mask="url(#d)">
                    <path d="M-11.727-26h67v79h-67z"/>
                </g>
            </g>
        </g>
        <g>
            <path fill="#D2242A" d="M46.748 80H31.25A1.26 1.26 0 0 1 30 78.73V70.27c0-.702.56-1.271 1.251-1.271h15.497c.691 0 1.252.57 1.252 1.271v8.458c0 .703-.56 1.271-1.252 1.271"/>
            <path fill="#FFF" d="M42.864 75.008a3.772 3.772 0 0 1-3.78 3.763c-2.091 0-3.784-1.686-3.784-3.763s1.693-3.763 3.784-3.763a3.772 3.772 0 0 1 3.78 3.763M34.184 76.667h-.737l.788-1.923h.74zM43.48 76.667h-.456l.788-1.923h.457zM44.743 76.667h-.194l.787-1.923h.193z"/>
            <path fill="#C52D35" d="M36.21 76.658h.581c.03 0 .054-.023.054-.052v-1.8a.052.052 0 0 0-.054-.051h-.586c-.04 0-.068.03-.068.068l-.23.566a.046.046 0 0 0 .04.064h.165c.025 0 .047.019.047.046v1.107c0 .029.023.052.052.052"/>
            <path fill="#C52D35" d="M37.472 76.658h.583c.03 0 .055-.023.055-.052v-1.8c0-.028-.025-.051-.055-.051h-.906a.068.068 0 0 0-.068.068l-.232.566-.08.064h.464c.103 0 .187.081.187.186v.967c0 .029.023.052.052.052M40.076 74.755h-.582a.053.053 0 0 0-.053.052v1.799c0 .029.024.052.053.052h.588c.04 0 .068-.03.068-.068l.23-.566c.015-.031-.007-.065-.043-.065h-.16a.045.045 0 0 1-.046-.045v-1.107c0-.03-.026-.052-.055-.052"/>
            <path fill="#C52D35" d="M37.681 76.658h.383c.037 0 .067-.031.067-.067l.23-.568a.046.046 0 0 0-.042-.065h-.161l-.477.7zM41.634 74.755h.693c.034 0 .058.032.043.062l-.733 1.812c-.005.018-.022.029-.042.029h-.627l.621-1.872a.05.05 0 0 1 .045-.031"/>
            <path fill="#C52D35" d="M40.766 74.755h-.979c-.069 0 .282.067.306.13l.693 1.713c.014.038.05.06.089.06h.593l-.61-1.839a.094.094 0 0 0-.092-.064M39.488 75.365c0 .383-.049.406-.049.406s-.055-.367-.34-.367c-.28 0-.343.162-.343.283 0 .14.142.272.222.272h.51l-.301.664a.061.061 0 0 1-.056.035h-.232c-.242 0-.875-.316-.875-.928 0-.613.47-.975.863-.975a.58.58 0 0 1 .6.61z"/>
            <path fill="#5A1F57" d="M39.931 70.746h-1.606a.214.214 0 0 1-.215-.214v-.27c0-.117.096-.213.215-.213h1.606c.12 0 .215.096.215.214v.27a.214.214 0 0 1-.215.213"/>
            <path fill="#C2B5CF" d="M38.663 70.5h.93V68h-.93z"/>
        </g>
    </g>
</svg>
