<?xml version="1.0" encoding="UTF-8"?>
<svg width="50px" height="33px" viewBox="0 0 50 33" version="1.1" xmlns="http://www.w3.org/2000/svg" xmlns:xlink="http://www.w3.org/1999/xlink">
    <!-- Generator: Sketch 49 (51002) - http://www.bohemiancoding.com/sketch -->
    <title>devices/ NAV laptop</title>
    <desc>Created with Sketch.</desc>
    <defs>
        <polygon id="path-1" points="1.41605576 2.56904142 1.41605576 0.0406982249 0.0356115242 0.0406982249 0.0356115242 2.56904142 1.41605576 2.56904142"></polygon>
    </defs>
    <g id="Kvittering-2.0-(GjennopptaEttersendelse)" stroke="none" stroke-width="1" fill="none" fill-rule="evenodd">
        <g id="KvitteringEttersendelseDesktop_EkspandertOpplastet" transform="translate(-881.000000, -253.000000)">
            <g id="hero" transform="translate(0.000000, 144.000000)">
                <g id="illustrasjon" transform="translate(881.000000, 46.000000)">
                    <g id="devices/-NAV-laptop" transform="translate(0.000000, 63.000000)">
                        <rect id="Rectangle" fill="#78706A" x="1.11111111" y="28.6" width="47.7777778" height="1.1"></rect>
                        <path d="M1,29.15 L49,29.15 C49.5522847,29.15 50,29.5977153 50,30.15 L50,31.075 C50,32.1381481 49.1381481,33 48.075,33 L1.925,33 C0.861851857,33 1.30198097e-16,32.1381481 0,31.075 L0,30.15 C-6.76353751e-17,29.5977153 0.44771525,29.15 1,29.15 Z" id="Rectangle-4" fill="#ACB3BB"></path>
                        <rect id="Rectangle-5" fill="#ACB3BB" x="0" y="0" width="50" height="28.6"></rect>
                        <rect id="Rectangle-6" fill="#78706A" x="1.12359551" y="30.8709677" width="1.12359551" height="1"></rect>
                        <rect id="Rectangle-6-Copy" fill="#78706A" x="2.80898876" y="30.8709677" width="1.12359551" height="1"></rect>
                        <g id="NAV-logo-/-hvit-" transform="translate(16.853933, 9.580645)" stroke-width="1">
                            <g id="Page-1-Copy">
                                <polygon id="Fill-3" fill="#FFFFFF" points="0 7.18099408 1.09109665 4.65265089 2.13947212 4.65265089 1.0497658 7.18099408"></polygon>
                                <polygon id="Fill-5" fill="#FFFFFF" points="13.4637472 7.18099408 14.5408773 4.65265089 15.1124312 4.65265089 14.0353643 7.18099408"></polygon>
                                <g id="Group-9" transform="translate(15.546468, 4.611953)">
                                    <mask id="mask-2" fill="white">
                                        <use xlink:href="#path-1"></use>
                                    </mask>
                                    <g id="Clip-8"></g>
                                    <polygon id="Fill-7" fill="#FFFFFF" mask="url(#mask-2)" points="0.0356115242 2.56904142 1.11255204 0.0406982249 1.41608736 0.0406982249 0.339020446 2.56904142"></polygon>
                                </g>
                                <path d="M7.91916245,9.99656805 C4.97158996,9.99656805 2.58154164,7.75887574 2.58154164,4.99863905 C2.58154164,2.23810651 4.97158996,0 7.91916245,0 C10.8678093,0 13.2581104,2.23810651 13.2581104,4.99863905 C13.2581104,7.75887574 10.8678093,9.99656805 7.91916245,9.99656805 Z M12.4725903,4.65265089 L11.5236238,4.65265089 C11.5236238,4.65265089 11.4582149,4.65265089 11.4350848,4.70673373 L10.9099175,6.212 L10.3851926,4.70673373 C10.3620625,4.65265089 10.2962743,4.65265089 10.2962743,4.65265089 L8.47164981,4.65265089 C8.43215167,4.65265089 8.39903643,4.68353846 8.39903643,4.72028402 L8.39903643,5.23146746 C8.39903643,4.8259645 7.93820372,4.65265089 7.66835242,4.65265089 C7.06406245,4.65265089 6.65953829,5.02531361 6.53358662,5.59188166 C6.52676134,5.21602367 6.49339331,5.08134911 6.3852632,4.94342012 C6.33559033,4.87584615 6.26379851,4.81904142 6.18562379,4.77205917 C6.02466097,4.68377515 5.88012937,4.65265089 5.56951599,4.65265089 L5.20480595,4.65265089 C5.20480595,4.65265089 5.13889145,4.65265089 5.11563494,4.70673373 L4.78378736,5.47673373 L4.78378736,4.72028402 C4.78378736,4.68353846 4.75092491,4.65265089 4.71148996,4.65265089 L3.86755688,4.65265089 C3.86755688,4.65265089 3.80240074,4.65265089 3.77870186,4.70673373 L3.43370929,5.50738462 C3.43370929,5.50738462 3.39926691,5.58744379 3.47801041,5.58744379 L3.80240074,5.58744379 L3.80240074,7.11312426 C3.80240074,7.15099408 3.83425204,7.18099408 3.87488773,7.18099408 L4.71148996,7.18099408 C4.75092491,7.18099408 4.78378736,7.15099408 4.78378736,7.11312426 L4.78378736,5.58744379 L5.10988401,5.58744379 C5.29701041,5.58744379 5.33663494,5.59223669 5.40943792,5.62401183 C5.45329665,5.63951479 5.4927948,5.67087574 5.51434498,5.70702959 C5.55845651,5.78478107 5.56951599,5.87815385 5.56951599,6.15347929 L5.56951599,7.11312426 C5.56951599,7.15099408 5.60199926,7.18099408 5.64212937,7.18099408 L6.44397323,7.18099408 C6.44397323,7.18099408 6.53459777,7.18099408 6.57043048,7.0972071 L6.74814052,6.6859645 C6.9844342,6.99584615 7.3733487,7.18099408 7.85667955,7.18099408 L7.96228178,7.18099408 C7.96228178,7.18099408 8.05347509,7.18099408 8.08956059,7.0972071 L8.39903643,6.37957396 L8.39903643,7.11312426 C8.39903643,7.15099408 8.43215167,7.18099408 8.47164981,7.18099408 L9.2901777,7.18099408 C9.2901777,7.18099408 9.38048625,7.18099408 9.41676134,7.0972071 C9.41676134,7.0972071 9.74412193,6.33620118 9.74538587,6.33046154 L9.74589145,6.33046154 C9.75846766,6.26714793 9.67302528,6.26714793 9.67302528,6.26714793 L9.38086543,6.26714793 L9.38086543,4.96134911 L10.3000662,7.0972071 C10.3359621,7.18099408 10.4264602,7.18099408 10.4264602,7.18099408 L11.3934379,7.18099408 C11.3934379,7.18099408 11.4844416,7.18099408 11.5203375,7.0972071 L12.5393896,4.73454438 C12.5746535,4.65265089 12.4725903,4.65265089 12.4725903,4.65265089 Z M8.39903643,6.26714793 L7.8492223,6.26714793 C7.630371,6.26714793 7.45234498,6.10123077 7.45234498,5.89608284 C7.45234498,5.69128994 7.630371,5.52430769 7.8492223,5.52430769 L8.00298067,5.52430769 C8.2212632,5.52430769 8.39903643,5.69128994 8.39903643,5.89608284 L8.39903643,6.26714793 Z" id="Combined-Shape" fill="#FEFEFE"></path>
                            </g>
                        </g>
                    </g>
                </g>
            </g>
        </g>
    </g>
</svg>