<svg xmlns="http://www.w3.org/2000/svg" xmlns:xlink="http://www.w3.org/1999/xlink" width="54" height="92" viewBox="0 0 54 92">
    <defs>
        <path id="a" d="M38.68.18C44.676 3.128 54 11.116 54 18.523V43H0V18.523C0 11.376 8.531 3.689 14.458.509c-.3.183-.458.294-.458.294C15.021 2.493 17.766 10 26.376 10 34.99 10 39 1.941 39 .366a26.67 26.67 0 0 0-.32-.186z"/>
        <path id="c" d="M40.86 27.063c.328-.385.109-1.345.109-2.57C40.969 10.965 31.797 0 20.485 0 9.172 0 0 10.965 0 24.493 0 26.276.064 28.046.64 28c.34-6.59 2.285-11.336 2.984-13.154 1.386-3.604 2.814-5.626 7.594-2.811 4.723 2.784 27.604-14.59 29.57 15.126-.066.07-.042.037.072-.097z"/>
    </defs>
    <g fill="none" fill-rule="evenodd">
        <path fill="#E7E5E2" d="M14 49.673C15.021 51.306 17.89 80 26.5 80 35.112 80 39 50.772 39 49.251c-13.185-7.553-25 .422-25 .422z"/>
        <g transform="translate(0 49)">
            <mask id="b" fill="#fff">
                <use xlink:href="#a"/>
            </mask>
            <use fill="#D8A25D" xlink:href="#a"/>
            <g mask="url(#b)">
                <path fill="#5C4378" d="M-33 72H93V-28H-33z"/>
            </g>
        </g>
        <path fill="#D2242A" d="M46.748 75H31.25A1.26 1.26 0 0 1 30 73.73V65.27c0-.702.56-1.271 1.251-1.271h15.497c.691 0 1.252.57 1.252 1.271v8.458c0 .703-.56 1.271-1.252 1.271"/>
        <path fill="#FFF" d="M42.864 70.008a3.772 3.772 0 0 1-3.78 3.763c-2.091 0-3.784-1.686-3.784-3.763s1.693-3.763 3.784-3.763a3.772 3.772 0 0 1 3.78 3.763M34.184 71.667h-.737l.788-1.923h.74zM43.48 71.667h-.456l.788-1.923h.457zM44.743 71.667h-.194l.787-1.923h.193z"/>
        <path fill="#C52D35" d="M36.21 71.658h.581c.03 0 .054-.023.054-.052v-1.8a.052.052 0 0 0-.054-.051h-.586c-.04 0-.068.03-.068.068l-.23.566a.046.046 0 0 0 .04.064h.165c.025 0 .047.019.047.046v1.107c0 .029.023.052.052.052"/>
        <path fill="#C52D35" d="M37.472 71.658h.583c.03 0 .055-.023.055-.052v-1.8c0-.028-.025-.051-.055-.051h-.906a.068.068 0 0 0-.068.068l-.232.566-.08.064h.464c.103 0 .187.081.187.186v.967c0 .029.023.052.052.052M40.076 69.755h-.582a.053.053 0 0 0-.053.052v1.799c0 .029.024.052.053.052h.588c.04 0 .068-.03.068-.068l.23-.566c.015-.031-.007-.065-.043-.065h-.16a.045.045 0 0 1-.046-.045v-1.107c0-.03-.026-.052-.055-.052"/>
        <path fill="#C52D35" d="M37.681 71.658h.383c.037 0 .067-.031.067-.067l.23-.568a.046.046 0 0 0-.042-.065h-.161l-.477.7zM41.634 69.755h.693c.034 0 .058.032.043.062l-.733 1.812c-.005.018-.022.029-.042.029h-.627l.621-1.872a.05.05 0 0 1 .045-.031"/>
        <path fill="#C52D35" d="M40.766 69.755h-.979c-.069 0 .282.067.306.13l.693 1.713c.014.038.05.06.089.06h.593l-.61-1.839a.094.094 0 0 0-.092-.064M39.488 70.365c0 .383-.049.406-.049.406s-.055-.367-.34-.367c-.28 0-.343.162-.343.283 0 .14.142.272.222.272h.51l-.301.664a.061.061 0 0 1-.056.035h-.232c-.242 0-.875-.316-.875-.928 0-.613.47-.975.863-.975a.58.58 0 0 1 .6.61z"/>
        <path fill="#5A1F57" d="M39.931 65.746h-1.606a.214.214 0 0 1-.215-.214v-.27c0-.117.096-.213.215-.213h1.606c.12 0 .215.096.215.214v.27a.214.214 0 0 1-.215.213"/>
        <path fill="#C2B5CF" d="M38.663 65.5h.93V63h-.93z"/>
        <path fill="#E7E5E2" d="M47.215 34.28c-2.498 10.303-10.6 17.852-20.211 17.852-9.611 0-17.714-7.55-20.21-17.855-.244.09-.512.141-.794.141-1.103 0-2-.771-2-1.726v-6.965C4 24.772 4.897 24 6 24c.074 0 .147.003.218.01C7.691 12.128 16.435 3 27.004 3c10.568 0 19.314 9.127 20.787 21.01.068-.007.138-.01.209-.01 1.105 0 2 .772 2 1.727v6.965c0 .955-.895 1.726-2 1.726a2.27 2.27 0 0 1-.785-.138z"/>
        <g>
            <path fill="#635E59" d="M19.03 26.625c-1.447.109-1.852-2.024-1.417-3.417.083-.264.562-1.465 1.41-1.465.847 0 1.221.656 1.273.769.623 1.358.317 3.993-1.266 4.113M35.18 26.625c1.447.109 1.852-2.024 1.416-3.417-.082-.264-.561-1.465-1.41-1.465-.846 0-1.22.656-1.272.769-.623 1.358-.318 3.993 1.266 4.113"/>
            <path stroke="#D1BFA3" stroke-linecap="round" d="M27.488 28.583c.864-.133 1.707-.1 2.104.385.965 1.185.688 2.554-.937 3.566-.813.505-1.963.712-2.668.4"/>
            <path stroke="#593A32" stroke-linecap="round" stroke-width="1.013" d="M33.722 36.568s-1.828 4.187-6.914 4.031c-5.086-.156-6.993-4.031-6.993-4.031"/>
        </g>
        <g>
            <g transform="translate(5.977)">
                <mask id="d" fill="#fff">
                    <use xlink:href="#c"/>
                </mask>
                <use fill="#3E3832" xlink:href="#c"/>
                <g fill="#D2654C" mask="url(#d)">
                    <path d="M-12.705-23h67v79h-67z"/>
                </g>
            </g>
        </g>
    </g>
</svg>
