<svg xmlns="http://www.w3.org/2000/svg" xmlns:xlink="http://www.w3.org/1999/xlink" width="56" height="75" viewBox="0 0 56 75">
    <defs>
        <path id="a" d="M0 11.657v54.806C0 68.416 1.57 70 3.51 70h46.983C52.429 70 54 68.416 54 66.463V3.537C54 1.584 52.43 0 50.493 0H12.212L0 11.657z"/>
    </defs>
    <g fill="none" fill-rule="evenodd">
        <use fill="#E4E4DB" xlink:href="#a"/>
        <path fill="#C9C9C9" d="M12.323 0v8.124a3.54 3.54 0 0 1-3.541 3.541H0L12.323 0z"/>
        <g>
            <path fill="#E2D1B6" d="M29.123 23.274l-4.6-7.51-2.192 8.53 3.673.411z"/>
            <path fill="#E9C264" d="M33.009 64.65l2.266-.342-6.051-40.35-2.264.339z"/>
            <path fill="#DAB25B" d="M24.697 24.639l6.048 40.347 2.264-.337-6.048-40.352z"/>
            <path fill="#E9C264" d="M30.745 64.986l-6.048-40.347-2.268.339 6.053 40.347zM28.308 22.901c-.426.063-.632.652-1.195.735a.716.716 0 0 1-.253-.01l.1.671 2.264-.339-.095-.626s-.393-.494-.821-.43"/>
            <path fill="#DAB25B" d="M26.86 23.625c-.391-.086-.617-.5-1.217-.413-.603.09-.695.554-1.046.755l.1.672 2.264-.342-.101-.672z"/>
            <path fill="#E9C264" d="M24.597 23.967a.68.68 0 0 1-.238.08c-.57.084-.934-.41-1.362-.347-.424.06-.654.652-.654.652l.086.626 2.269-.34-.101-.671z"/>
            <path fill="#545757" d="M24.526 15.764l-.775 3.02 2.4-.36z"/>
            <path fill="#C52C35" d="M42.21 47.43l6.78 1.571c.567.129.925.698.787 1.269l-.91 3.943a1.062 1.062 0 0 1-1.269.793l-6.778-1.571a1.062 1.062 0 0 1-.793-1.269l.916-3.944a1.052 1.052 0 0 1 1.267-.792"/>
            <path fill="#E2D1B6" d="M55.67 9.102L53.46.579l-4.58 7.509 3.393 1.468z"/>
            <path fill="#50808B" d="M47.32 49.808l2.263.336 5.985-40.361-2.264-.336z"/>
            <path fill="#0C576F" d="M51.038 9.11l-5.984 40.361 2.265.337L53.304 9.45z"/>
            <path fill="#50808B" d="M45.054 49.471l5.987-40.36-2.268-.337-5.986 40.362zM55.001 8.508c-.425-.066-.795.434-1.364.35a.625.625 0 0 1-.233-.083l-.1.672 2.263.336.095-.626s-.235-.586-.66-.65"/>
            <path fill="#0C576F" d="M53.402 8.775c-.347-.195-.44-.661-1.042-.75-.606-.09-.83.328-1.218.417l-.103.67 2.265.335.098-.672z"/>
            <path fill="#50808B" d="M51.139 8.441a.636.636 0 0 1-.247.006c-.571-.084-.775-.663-1.203-.733-.428-.06-.821.434-.821.434l-.095.63 2.268.332.098-.669z"/>
            <path fill="#545757" d="M53.46.579l-1.62 2.659 2.4.358zM40.88 48.49l8.837 2.047-.278 1.207-8.837-2.051z"/>
            <path fill="#E2D1B6" d="M44.424 31.003l-3.075-8.251-3.785 7.947 3.526 1.108z"/>
            <path fill="#97AB48" d="M41.245 52.306l2.29.099.857-20.713-2.286-.1z"/>
            <path fill="#727D31" d="M39.82 31.491l-.857 20.712 2.283.103.86-20.714z"/>
            <path fill="#97AB48" d="M38.96 52.203l.857-20.712-2.285-.103-.859 20.717zM43.698 30.48c-.431-.02-.743.517-1.317.489a.729.729 0 0 1-.245-.055l-.032.678 2.289.1.032-.631s-.296-.563-.727-.581"/>
            <path fill="#727D31" d="M42.136 30.914c-.371-.164-.509-.612-1.117-.638-.61-.026-.79.41-1.169.534l-.029.684 2.286.098.029-.678z"/>
            <path fill="#97AB48" d="M39.85 30.81a.614.614 0 0 1-.247.037c-.577-.023-.842-.589-1.273-.602-.433-.018-.772.51-.772.51l-.025.632 2.288.107.029-.684z"/>
            <path fill="#545757" d="M41.349 22.752l-1.342 2.812 2.433.109z"/>
            <path fill="#78706A" d="M51.777 42.53H20.556l3.742 32.186h23.73z"/>
        </g>
    </g>
</svg>
