<svg xmlns="http://www.w3.org/2000/svg" width="56" height="60" viewBox="0 0 56 60">
    <g fill="none" fill-rule="evenodd">
        <path fill="#0C576F" d="M4.527 30.308c-.692-.693-3.967-3.072-3.274-3.765L.142 23.029 26.369.558a1.774 1.774 0 0 1 2.509 0l26.225 22.47-5.94 12.858c.69.692-21.72 12.164-22.412 12.858L4.527 30.308z"/>
        <path fill="#DCDCD2" d="M49.739 46.985H5.509a.552.552 0 0 1-.551-.55V16.607a.55.55 0 0 1 .55-.551h44.23a.55.55 0 0 1 .55.55v29.829c0 .3-.246.55-.55.55"/>
        <path fill="#8F9395" d="M13.765 29.771h27.716V27.59H13.765zM13.765 34.705h27.716v-2.181H13.765zM13.765 39.641h27.716v-2.182H13.765zM13.765 44.575h27.716v-2.18H13.765z"/>
        <path fill="#D94C56" d="M2.216 59.659H46.96c1.147 0-46.818-36.63-46.818-36.63v34.555c0 1.145.93 2.075 2.075 2.075"/>
        <path fill="#C52C35" d="M53.03 59.659H8.287c-1.146 0 46.818-36.63 46.818-36.63v34.555a2.076 2.076 0 0 1-2.075 2.075"/>
    </g>
</svg>
