<?xml version="1.0" encoding="utf-8"?>
<!-- Generator: Adobe Illustrator 18.1.1, SVG Export Plug-In . SVG Version: 6.00 Build 0)  -->
<!DOCTYPE svg PUBLIC "-//W3C//DTD SVG 1.1//EN" "http://www.w3.org/Graphics/SVG/1.1/DTD/svg11.dtd">
<svg version="1.1" xmlns="http://www.w3.org/2000/svg" xmlns:xlink="http://www.w3.org/1999/xlink" x="0px" y="0px" width="17.4px"
	 height="32px" viewBox="0 0 17.4 32" enable-background="new 0 0 17.4 32" xml:space="preserve">
<g id="bkdg" display="none" opacity="0.1">
	<rect x="-7.6" y="0" display="inline" opacity="0.2" fill="#FF00FF" width="32" height="32"/>
</g>
<g id="Layer_1">
	<g>
		<circle fill="#3E3832" cx="8.7" cy="2.6" r="2.6"/>
		<path fill="#3E3832" d="M16.6,18.5c-0.6,0.2-1.2-0.1-1.5-0.7l-2-6.4c-0.1-0.3-0.4-0.5-0.7-0.4c-0.3,0.1-0.4,0.5-0.4,0.8
			c0,0,2.9,9.2,3.4,11.2h-2.9v7.5c0,0.8-0.7,1.5-1.5,1.5c-0.8,0-1.5-0.7-1.5-1.5v0v-7.6V23H8.7H8.4v-0.1v7.6v0
			c0,0.8-0.7,1.5-1.5,1.5c-0.8,0-1.5-0.7-1.5-1.5V23H2.1c0.4-2,3.4-11.2,3.4-11.2c0-0.3-0.1-0.6-0.4-0.7c-0.3-0.1-0.6,0-0.7,0.4
			l-2,6.4c-0.3,0.5-0.9,0.8-1.5,0.7c-0.6-0.2-1-0.9-0.8-1.6c0,0,2.7-8.6,2.8-8.7C3.6,5.9,5.4,6,7.2,6h3.1c1.7,0,3.6-0.1,4.4,2.3
			c0,0.1,2.8,8.7,2.8,8.7C17.6,17.6,17.2,18.3,16.6,18.5z"/>
	</g>
</g>
</svg>
