<?xml version="1.0" encoding="utf-8"?>
<!-- Generator: Adobe Illustrator 17.0.0, SVG Export Plug-In . SVG Version: 6.00 Build 0)  -->
<!DOCTYPE svg PUBLIC "-//W3C//DTD SVG 1.1//EN" "http://www.w3.org/Graphics/SVG/1.1/DTD/svg11.dtd">
<svg version="1.1" id="Layer_2" xmlns="http://www.w3.org/2000/svg" xmlns:xlink="http://www.w3.org/1999/xlink" x="0px" y="0px"
	 width="64px" height="64px" viewBox="0 0 64 64" enable-background="new 0 0 64 64" xml:space="preserve">
<path fill="#e6e6e6" d="M32,0C14.327,0,0,14.327,0,32c0,17.674,14.327,32,32,32c17.674,0,32-14.326,32-32C64,14.327,49.674,0,32,0z
	 M32,57.8c-7.965,0-15.107-3.51-19.976-9.062c0,0,3.158-1.178,4.275-1.539c0.574-0.186,2.091-0.75,2.605-0.987
	c0.513-0.237,2.565-0.75,3.157-3.473c0.592-2.723,1.263-7.656,1.421-8.998c0,0-1.46-0.237-1.618,0
	c-0.158,0.237-1.105,0.277-1.263,0.434c-0.158,0.157-0.355,0.03-0.474,0.212c-0.118,0.182-0.395-0.699-0.316-0.752
	c0.079-0.053-0.158-0.487-0.355-0.447c-0.197,0.039-0.434,0-0.592,0.316s-0.395,0.355-0.395,0.552c0,0.197-0.158-0.779,0.118-1.041
	s-2.012,0.212-2.289,1.159c0,0-0.868-0.198,1.026-1.776c0.118-0.474,0.079-0.513-0.118-1.065c-0.197-0.553-0.316-0.592-0.395-0.829
	c-0.079-0.237-0.513-0.71-0.474-0.908s-0.237-0.513-0.197-0.75c0.039-0.237,0.197-0.75,0.118-0.868s-0.474-0.474-0.829-0.631
	c-0.355-0.158-0.986-0.631-1.223-0.276c-0.237,0.355-0.237-0.868,0.118-0.986s0.395-0.434,0.631-0.671
	c0.237-0.237,0.197-0.355,0.513-0.197c0.316,0.158,0.592,0.474,0.868,0.395c0.276-0.079,0.355-0.38,0.355-0.466
	c0-0.086,0.237-0.599,0.276-0.915c0.039-0.316-0.237-0.71,0.039-1.065c0.276-0.355,0.434-0.395,0.612-0.671
	c0.178-0.277,0.533-0.631,0.612-0.789c0.079-0.158,0.276-0.592,0.552-0.671s0.395-0.355,0.829-0.276
	c0.434,0.079,0.552,0.158,0.552-0.197c0-0.355-0.118-0.868,0.079-0.947c0.197-0.079,0.237-0.474,0.039-0.592
	s-0.592,0.039-0.434-0.355s0.355-0.592,0.552-0.75c0.197-0.158,0.316-0.513,0.395-0.829c0.079-0.316,0.039-0.789,0.039-1.026
	c0-0.237,0.316-0.355,0.474-0.71c0.158-0.355,2.25-2.565,2.171-2.92c-0.079-0.355,1.026-1.618,1.579-1.618s1.578-0.513,2.171-0.592
	c0.592-0.079,1.579-0.197,1.855-0.513c0.276-0.316,2.723-1.687,3.473-1.475c0.75,0.212,1.657,0.449,1.934,0.725
	c0.277,0.276,1.539,1.776,2.052,2.052s0.67,0.434,0.868,0.276c0.197-0.158,0.474-0.276,0.552-0.079
	c0.079,0.197,0.079,0.789,0.474,0.868s0.908,0.395,0.908,0.552c0,0.158-0.355,0.829,0,0.908c0.355,0.079,0.947,0.158,1.105,0.316
	c0.158,0.158,0.75,0.789,1.026,0.986c0.277,0.197,0.355,0.986,0.789,1.065c0.434,0.079,0.829,0.631,0.987,0.908
	c0.158,0.277,0.434,0.829,0.75,1.144c0.316,0.316,0.474,1.579,0.513,1.815c0.039,0.237,0.079,0.75,0,1.065
	c-0.079,0.316-0.829,1.224-0.987,1.618c-0.157,0.395-0.197,1.697,0,1.973c0.198,0.276,0.277,0.829,0.118,1.224
	c-0.158,0.395-0.789,0.908-0.789,1.184c0,0,1.302,0.316,1.46,0.316c0,0-1.657,0.197-1.737,0.434
	c-0.079,0.237-0.355,0.358-0.079,0.889c0.276,0.531,0.67,1.913,0.039,3.531c-0.632,1.617-3.236,4.301-3.591,5.683
	c-0.355,1.382-0.552,2.486-1.105,2.684c-0.552,0.197-2.881,0-2.881,0s0,0.464,0.286,0.902c0.21,0.323,1.135,1.031,2.398,0.873
	c2.211-0.277,4.422-1.105,14.328,6.59C47.107,54.29,39.966,57.8,32,57.8z"/>
</svg>
