<?xml version="1.0" encoding="utf-8"?>
<!-- Generator: Adobe Illustrator 17.0.0, SVG Export Plug-In . SVG Version: 6.00 Build 0)  -->
<!DOCTYPE svg PUBLIC "-//W3C//DTD SVG 1.1//EN" "http://www.w3.org/Graphics/SVG/1.1/DTD/svg11.dtd">
<svg version="1.1" id="Layer_1" xmlns="http://www.w3.org/2000/svg" xmlns:xlink="http://www.w3.org/1999/xlink" x="0px" y="0px"
	 width="64px" height="64px" viewBox="0 0 64 64" enable-background="new 0 0 64 64" xml:space="preserve">
<path fill="#e6e6e6" d="M32,0C14.327,0,0,14.328,0,32s14.327,32,32,32s32-14.328,32-32S49.672,0,32,0z M48.477,51.878
	c-4.284,3.422-9.711,5.472-15.62,5.472c-5.91,0-11.335-2.05-15.62-5.472c0.121-0.341,2.275-2,2.583-2.281
	c3.283-3.027,4.787-5.177,4.846-6.326c0.059-1.151-1.247-4.359-1.247-4.359s-3.677,0.171-4.568-0.361
	c-1.005-0.598-1.199-1.829-0.978-3.03c0.221-1.202-0.234-1.138-0.662-1.531c-0.288-0.264-0.172-1.681,0.005-1.952
	c0.23-0.352-0.905-0.624-0.639-1.843c0.209-0.968,0.112-1.319,0.112-1.319s-2.107-0.507-2.18-1.249
	c-0.062-0.651,1.071-2.089,1.697-2.992c0.655-0.949,1.788-2.261,1.67-3.521c-0.121-1.261,0.043-2.715,0.293-3.482
	c0.257-0.767-0.544-1.142-0.544-1.142s0.49-0.385,0.701-0.697c0.209-0.307-0.53-0.81-0.53-0.81s1.945-0.46,2.059-0.867
	c0.112-0.407-1.679,0.081-1.679,0.081s0.012-0.928,1.102-1.579c1.088-0.654-0.38-0.883-0.38-0.883s-0.093-0.33,2.956-1.552
	c3.049-1.223,2.342-2.206,7.713-2.772c5.37-0.567,8.978,0.212,11.502,3.151c2.523,2.94,4.07,2.951,3.896,6.872
	c-0.178,3.92-0.057,6.222-1.325,9.555c-1.268,3.329-0.783,2.927-1.497,5.44c-0.751,2.653-0.824,2.545-1.533,2.7
	c-0.731,0.161-1.379,1.779,0.354,4.574c1.736,2.795,3.347,3.299,5.135,5.461C47.712,47.123,48.929,49.748,48.477,51.878z"/>
</svg>
