<?xml version="1.0" encoding="utf-8"?>
<!-- Generator: Adobe Illustrator 17.0.0, SVG Export Plug-In . SVG Version: 6.00 Build 0)  -->
<!DOCTYPE svg PUBLIC "-//W3C//DTD SVG 1.1//EN" "http://www.w3.org/Graphics/SVG/1.1/DTD/svg11.dtd">
<svg version="1.1" id="Layer_1" xmlns="http://www.w3.org/2000/svg" xmlns:xlink="http://www.w3.org/1999/xlink" x="0px" y="0px"
	 width="32px" height="32px" viewBox="0 0 32 32" enable-background="new 0 0 32 32" xml:space="preserve">
<g>
	<path fill="#BEBCBB" d="M16,0C7.163,0,0,7.164,0,16c0,8.837,7.163,16,16,16c8.837,0,16-7.163,16-16C32,7.164,24.837,0,16,0z
		 M22.299,11.023h-2.273L20.02,8.752L22.299,11.023z M22.996,23H11.003V8.001l7.993,0v4.022h4V23z"/>
	<path fill="#BEBCBB" d="M15.999,11.976c-0.803,0-1.558,0.313-2.126,0.88c-0.568,0.568-0.88,1.323-0.88,2.126
		c0,0.803,0.313,1.558,0.88,2.125c0.567,0.568,1.321,0.88,2.125,0.88c0.523,0,1.036-0.136,1.489-0.393l2.971,2.972
		c0.119,0.118,0.282,0.183,0.458,0.183c0.213,0,0.429-0.094,0.594-0.258c0.144-0.145,0.234-0.329,0.252-0.518
		c0.022-0.207-0.042-0.396-0.179-0.532l-2.972-2.971c0.66-1.16,0.461-2.665-0.487-3.613C17.556,12.289,16.802,11.976,15.999,11.976z
		 M17.397,16.38c-0.374,0.373-0.87,0.578-1.398,0.578c-0.528,0-1.025-0.205-1.398-0.578c-0.373-0.373-0.578-0.869-0.578-1.398
		c0-0.528,0.205-1.025,0.578-1.397c0.373-0.373,0.869-0.578,1.398-0.578c0.528,0,1.024,0.206,1.398,0.578
		c0.372,0.372,0.578,0.869,0.578,1.397C17.975,15.511,17.769,16.007,17.397,16.38z"/>
</g>
</svg>
