<svg xmlns="http://www.w3.org/2000/svg" xmlns:xlink="http://www.w3.org/1999/xlink" viewBox="-10 -10 90 150">
    <defs>
        <!--<path id="a" d="M.106 27.186A6.274 6.274 0 0 1 0 26.032C0 11.655 10.613 0 23.707 0 36.8 0 47.412 11.655 47.412 26.032c0 .095-.002.19-.006.285l.062-.001s.027 27.71-23.768 27.71C-.092 54.025 0 63.561 0 63.561V27.188l.106-.002z"/>-->
        <!--<path id="c" d="M25.38 0h-7.618C13.654 0 0 9.553 0 18.25v22.88h51V18.25C51 9.553 37.108 0 33 0h-7.62z"/>-->
    </defs>
    <g fill="none" fill-rule="evenodd">
        <!--<g transform="translate(10.47 7)">-->
            <!--<mask id="b" fill="#fff">-->
                <!--<use xlink:href="#a"/>-->
            <!--</mask>-->
            <!--<g fill="#F6B873" mask="url(#b)">-->
                <!--<path d="M-8.47-.938h65v74h-65z"/>-->
            <!--</g>-->
        <!--</g>-->
        <!--<path fill="#E7E5E2" d="M21.688 57.318c.957 1.531 3.646 28.432 11.718 28.432 8.074 0 11.719-27.4 11.719-28.827-12.361-7.081-23.438.395-23.438.395z"/>-->
        <!--<g transform="translate(8.563 55.745)">-->
            <!--<mask id="d" fill="#fff">-->
                <!--<use xlink:href="#c"/>-->
            <!--</mask>-->
            <!--<use fill="#D8A25D" xlink:href="#c"/>-->
            <!--<g mask="url(#d)">-->
                <!--<path fill="#5EAEC7" d="M-31.167 67.76h119v-93h-119z"/>-->
            <!--</g>-->
        <!--</g>-->
        <!--<path fill="#FFF" d="M21.544 57.43c.985 1.58 5.41 9.448 11.936 14.295 6.48-4.773 12.173-13.23 12.173-14.703-12.715-7.311-24.109.408-24.109.408z"/>-->
        <!--<g>-->
            <!--&lt;!&ndash;<path fill="#D2242A" d="M54.602 83.57H39.967a1.173 1.173 0 0 1-1.182-1.164v-7.753c0-.644.529-1.166 1.182-1.166h14.635c.653 0 1.183.522 1.183 1.166v7.753c0 .644-.53 1.165-1.183 1.165"/>&ndash;&gt;-->
            <!--&lt;!&ndash;<path fill="#FFF" d="M50.934 78.995c0 1.904-1.598 3.45-3.57 3.45-1.975 0-3.574-1.546-3.574-3.45 0-1.904 1.599-3.45 3.574-3.45 1.972 0 3.57 1.546 3.57 3.45M42.736 80.515h-.696l.744-1.762h.699zM51.517 80.515h-.432l.744-1.762h.432zM52.708 80.515h-.182l.742-1.762h.183z"/>&ndash;&gt;-->
            <!--&lt;!&ndash;<path fill="#C52D35" d="M44.65 80.507h.549c.028 0 .05-.021.05-.048V78.81c0-.027-.022-.048-.05-.048h-.554a.062.062 0 0 0-.064.063l-.218.519c-.013.026.008.059.038.059h.157c.023 0 .043.017.043.042v1.014c0 .027.022.048.05.048"/>&ndash;&gt;-->
            <!--&lt;!&ndash;<path fill="#C52D35" d="M45.842 80.507h.55c.028 0 .053-.021.053-.048V78.81c0-.027-.025-.048-.053-.048h-.855a.063.063 0 0 0-.065.063l-.219.519-.075.059h.437c.098 0 .177.074.177.17v.886c0 .027.022.048.05.048M48.301 78.762h-.55a.049.049 0 0 0-.05.048v1.65c0 .026.023.047.05.047h.556a.062.062 0 0 0 .064-.062l.218-.52c.013-.028-.008-.058-.041-.058h-.152a.042.042 0 0 1-.043-.042V78.81c0-.026-.025-.048-.052-.048"/>&ndash;&gt;-->
            <!--&lt;!&ndash;<path fill="#C52D35" d="M46.04 80.507h.36a.063.063 0 0 0 .064-.062l.218-.52c.013-.028-.008-.06-.04-.06h-.153l-.45.642zM49.773 78.762h.654c.032 0 .054.03.04.058l-.692 1.66c-.005.017-.02.027-.04.027h-.592l.587-1.716a.046.046 0 0 1 .043-.029"/>&ndash;&gt;-->
            <!--&lt;!&ndash;<path fill="#C52D35" d="M48.953 78.762h-.925c-.065 0 .266.062.29.12l.653 1.57a.088.088 0 0 0 .084.055h.561l-.577-1.685a.089.089 0 0 0-.086-.06M47.745 79.322c0 .351-.046.372-.046.372s-.052-.336-.32-.336c-.265 0-.325.148-.325.26 0 .128.135.249.21.249h.481l-.284.608a.058.058 0 0 1-.053.032h-.218c-.23 0-.827-.29-.827-.85 0-.563.444-.895.815-.895.306 0 .567.204.567.56z"/>&ndash;&gt;-->
            <!--&lt;!&ndash;<path fill="#5A1F57" d="M48.164 75.088h-1.517a.2.2 0 0 1-.202-.196v-.247a.2.2 0 0 1 .202-.196h1.517a.2.2 0 0 1 .203.196v.247a.2.2 0 0 1-.203.196"/>&ndash;&gt;-->
            <!--&lt;!&ndash;<path fill="#C2B5CF" d="M46.967 74.862h.878v-2.291h-.878z"/>&ndash;&gt;-->
        <!--</g>-->
        <!--<path fill="#E7E5E2" d="M14.693 32.8s-.098.559-.225.467a1.522 1.522 0 0 0-.568-.116c-.87 0-1.577.73-1.579 1.631l-.008 6.24c-.002.903.701 1.635 1.572 1.636.349 0 .668-.12.93-.319 2.105 10.049 9.61 17.146 18.557 17.161 8.949.015 16.477-7.058 18.611-17.1.26.2.58.321.93.322.87 0 1.576-.73 1.577-1.63l.01-6.241c0-.902-.703-1.634-1.573-1.636-.2 0-.392.043-.568.114C32.178 35.72 25.139 22 24.544 22c0 0-8.44 7.9-9.85 10.8z"/>-->
        <g transform="translate(-50 -30)">
            <!--<path fill="#635E59" d="M26.715 38.743c-1.362.104-1.743-1.922-1.333-3.246.077-.25.528-1.392 1.326-1.392.797 0 1.15.624 1.198.731.587 1.29.299 3.793-1.191 3.907M41.914 38.743c1.362.104 1.743-1.922 1.333-3.246-.077-.25-.528-1.392-1.326-1.392a1.34 1.34 0 0 0-1.198.731c-.587 1.29-.299 3.793 1.191 3.907"/>-->
            <!--<path fill="#D1BFA3" fill-rule="nonzero" d="M34.746 41.073c.801-.124 1.348-.046 1.544.196.74.918.503 1.888-.766 2.685-.667.418-1.585.566-2.07.349a.469.469 0 0 0-.621.242c-.106.24.002.52.24.626.803.36 2.038.161 2.949-.41 1.723-1.083 2.118-2.702.998-4.091-.474-.588-1.313-.707-2.417-.536a.474.474 0 0 0 .143.94z"/>-->
            <!--<path fill="#D19E9C" fill-rule="nonzero" d="M40.11 48c-.042.097-.14.285-.296.533a6.724 6.724 0 0 1-1.001 1.23c-1.204 1.168-2.77 1.843-4.764 1.78-1.944-.06-3.504-.724-4.727-1.795a7.058 7.058 0 0 1-1.115-1.235 4.33 4.33 0 0 1-.332-.534.469.469 0 0 0-.63-.216.477.477 0 0 0-.214.636c.069.142.203.373.409.665a8 8 0 0 0 1.265 1.4c1.38 1.21 3.145 1.962 5.315 2.03 2.26.07 4.067-.709 5.445-2.046.46-.446.84-.925 1.143-1.404.184-.292.304-.523.365-.665a.477.477 0 0 0-.243-.625.469.469 0 0 0-.62.245z"/>-->



            <!--<path fill="#6AB889"-->
                  <!--d="M175 87.5q0-17.8-6.9-34.05-6.6-15.7-18.75-27.8-12.1-12.1-27.8-18.75Q105.3 0 87.5 0 69.7 0 53.45 6.9q-15.7 6.65-27.85 18.75-12.1 12.1-18.75 27.8Q0 69.7 0 87.5q0 17.8 6.85 34.05 6.65 15.7 18.75 27.85 12.15 12.1 27.85 18.75Q69.7 175 87.5 175q17.8 0 34.05-6.85 15.7-6.65 27.8-18.75 12.15-12.15 18.75-27.85Q175 105.3 175 87.5z"-->
                  <!--id="a"/>-->
            <path fill="#3E3832"
                  d="M115.25 33.35q-12.4-14-30-14.05-17.6-.05-30.1 13.95-12.45 14-12.55 33.8 0 11.4.6 17 1 9.45 4.35 15.8 8.6 16.2 35.55 16.8h3.85q26.95-.5 35.6-16.7 3.35-6.3 4.4-15.75.65-5.6.65-17 .05-19.85-12.35-33.85z"
                  id="b"/>
            <path fill="#0C5472"
                  d="M71.8 104.75q-2.7 0-7.8 2.85-5.25 2.95-10.3 7.45-12.75 11.4-12.75 21.75v24.85q10.3 6.45 21.95 9.85 12 3.5 24.6 3.5 22.45 0 42.05-10.75V136.8q0-10.35-12.95-21.75-5.1-4.5-10.4-7.45-5.15-2.85-7.9-2.85H71.8z"
                  id="c"/>
            <path fill="#FFF"
                  d="M66.95 105.8l-3.45 1.9q4.6 7.45 6.75 10.4 6.8 9.3 14 14.7 7.6-5.65 14.8-15.05 6.35-8.35 6.35-10.75-13.8-8.05-29.25-4.45-4.8 1.1-9.2 3.25z"
                  id="d"/>
            <path fill="#D2242A"
                  d="M123 138.05q0-.85-.6-1.5-.6-.6-1.45-.6H95.5q-.85 0-1.45.6-.6.65-.6 1.5v13.9q0 .85.6 1.45t1.45.6h25.45q.85 0 1.45-.6t.6-1.45v-13.9z"
                  id="e"/>
            <path fill="#FFF"
                  d="M114.55 145.8q0-2.55-1.8-4.35-1.8-1.8-4.4-1.8-2.55 0-4.35 1.8-1.85 1.8-1.85 4.35 0 2.6 1.85 4.4 1.8 1.8 4.35 1.8 2.6 0 4.4-1.8 1.8-1.8 1.8-4.4z"
                  id="f"/>
            <path fill="#FFF" d="M101.6 145.4h-1.2l-1.3 3.15h1.2l1.3-3.15z" id="g"/>
            <path fill="#FFF" d="M116.85 145.4h-.75l-1.25 3.15h.75l1.25-3.15z" id="h"/>
            <path fill="#FFF" d="M118.95 145.4h-.35l-1.25 3.15h.3l1.3-3.15z" id="i"/>
            <path fill="#C52D35"
                  d="M103.55 146.65v1.8l.1.1h.95l.1-.1v-2.95l-.1-.1h-.95q-.1 0-.1.1l-.4.95.05.1h.3l.05.1z"
                  id="j"/>
            <path fill="#C52D35"
                  d="M105.2 145.4l-.1.1-.4.95-.15.1h.8q.3 0 .3.3v1.6l.05.1h.95l.1-.1v-2.95l-.1-.1h-1.45z"
                  id="k"/>
            <path fill="#C52D35"
                  d="M110 145.4h-.95l-.1.1v2.95l.1.1h.95q.1 0 .1-.15l.4-.9q0-.1-.1-.1h-.25l-.05-.1v-1.8l-.1-.1z"
                  id="l"/>
            <path fill="#C52D35" d="M107.1 147.4h-.25l-.8 1.15h.65q.1 0 .1-.15l.4-.9-.1-.1z" id="m"/>
            <path fill="#C52D35" d="M112.55 145.4l-.1.05-1 3.1h1.05l.05-.05 1.2-3q.1-.1-.05-.1h-1.15z" id="n"/>
            <path fill="#C52D35" d="M111.25 145.5q0-.1-.15-.1h-1.6q-.1 0 .5.2l1.15 2.85.15.1h.95l-1-3.05z"
                  id="o"/>
            <path fill="#C52D35"
                  d="M107.1 145.85q-.5.45-.5 1.15 0 .65.6 1.15.45.4.85.4h.4l.1-.1.5-1.05h-.85q-.1 0-.25-.15t-.15-.3q0-.5.6-.5.45 0 .55.6.1 0 .1-.65 0-1-1-1-.55 0-.95.45z"
                  id="p"/>
            <path fill="#5A1F57"
                  d="M109.75 138.8q.35 0 .35-.35V138q0-.35-.35-.35h-2.65q-.35 0-.35.35v.45q0 .35.35.35h2.65z"
                  id="q"/>
            <path fill="#C2B5CF" d="M107.65 134.3v4.1h1.55v-4.1h-1.55z" id="r"/>
            <path fill="#E7E5E2"
                  d="M118.6 65.25q-.6 0-1 .2-21.95 2.6-37.2-8.35-4.6-3.3-8.4-7.8-2.8-3.7-3.05-3.7-3.7 3.45-7.7 7.55-8 8.2-9.55 11.35-.2 1-.4.85-.4-.2-1-.2-1.1-.05-1.95.8-.8.85-.8 2.05l-.05 10.9q0 1.2.8 2.05.8.85 1.95.85.95 0 1.65-.55 2.8 13.3 11.75 21.65 9.05 8.4 20.75 8.4 11.7.05 20.75-8.35 8.95-8.35 11.8-21.6.7.55 1.6.55 1.15 0 2-.85.8-.85.8-2V68.1q0-1.2-.8-2-.8-.85-1.95-.85z"
                  id="s"/>
            <path fill="#635E59"
                  d="M72.65 74.8q1.8-.15 2.4-2.6.55-2.3-.3-4.15-.6-1.25-2.1-1.25t-2.3 2.4q-.6 1.9 0 3.7.65 2.05 2.3 1.9z"
                  id="t"/>
            <path fill="#635E59"
                  d="M96.75 72.2q.6 2.45 2.4 2.6 1.7.15 2.35-1.9.6-1.8 0-3.7-.25-.75-.7-1.35-.75-1.05-1.65-1.05-.85 0-1.5.55-.45.4-.55.7-.85 1.85-.35 4.15z"
                  id="u"/>
            <path fill="#D1BFA3"
                  d="M90.65 78.15q-1.15-1.4-4.25-.95-.35.05-.55.35-.15.25-.1.6.1.8.9.7 2.1-.35 2.7.3 1 1.2.65 2.4-.35 1.25-2 2.25-.85.55-1.9.75-1.05.15-1.7-.15-.3-.1-.6 0-.35.15-.45.45-.15.3 0 .6.1.35.4.45 1.05.5 2.5.25 1.45-.2 2.65-.95 2.25-1.4 2.75-3.3.45-1.95-1-3.75z"
                  id="v"/>
            <path fill="#D19E9C"
                  d="M96.5 90.4q-.35.1-.5.4 0 .1-.5.95-.75 1.2-1.75 2.1-3.3 3.25-8.3 3.1-4.8-.15-8.25-3.1-1-.9-1.95-2.15-.5-.75-.55-.95-.15-.3-.45-.4-.35-.1-.65.05-.3.15-.4.5-.15.3 0 .6.5.85.75 1.15.8 1.25 2.2 2.4 3.8 3.35 9.25 3.55 5.65.15 9.5-3.55 1.2-1.15 2-2.45l.6-1.15q.15-.3.05-.6-.15-.35-.45-.45-.3-.15-.6 0z"
                  id="w"/>



        </g>
    </g>
</svg>
