<svg width="400px" height="164px" viewBox="0 0 320 164" version="1.1" xmlns="http://www.w3.org/2000/svg" xmlns:xlink="http://www.w3.org/1999/xlink">
    <!-- Generator: Sketch 47.1 (45422) - http://www.bohemiancoding.com/sketch -->
    <title>illustrationKvittering</title>
    <desc>Created with Sketch.</desc>
    <defs>
        <path d="M14.3716216,11.00736 C14.5489355,12.2920641 14.8302789,13.1798434 15.2669831,13.2766087 C17.0063215,13.65447 3.06781226,13.0046826 1.1448877,13.2766087 C0.631736124,13.347946 0.322220806,12.411422 0.13737473,11.00736 L14.3716216,11.00736 Z" id="path-1"></path>
        <path d="M14.3716216,11.00736 C14.5489355,12.2920641 14.8302789,13.1798434 15.2669831,13.2766087 C17.0063215,13.65447 3.06781226,13.0046826 1.1448877,13.2766087 C0.631736124,13.347946 0.322220806,12.411422 0.13737473,11.00736 L14.3716216,11.00736 Z" id="path-3"></path>
        <path d="M14.3716216,11.00736 C14.5489355,12.2920641 14.8302789,13.1798434 15.2669831,13.2766087 C17.0063215,13.65447 3.06781226,13.0046826 1.1448877,13.2766087 C0.631736124,13.347946 0.322220806,12.411422 0.13737473,11.00736 L14.3716216,11.00736 Z" id="path-5"></path>
        <polygon id="path-7" points="3.63498498 5.08770363 3.63498498 0.366501022 0.00509217995 0.366501022 0.00509217995 5.08770363 3.63498498 5.08770363"></polygon>
        <path d="M24.8351915,2.78562355e-05 C38.4995297,0.0230278562 49.5571768,13.0710279 49.5332797,29.1450279 C49.5132062,42.6710279 49.5581327,58.7970279 25.8474709,59.2470279 C25.6706327,59.2540279 25.481368,59.2540279 25.2987944,59.2580279 C25.1123974,59.2600279 24.936515,59.2690279 24.7462944,59.2690279 C24.4996768,59.2680279 24.3161474,59.2580279 24.1221033,59.2560279 C23.9481327,59.2510279 23.7674709,59.2510279 23.5982797,59.2440279 C-0.111426144,58.7160279 -0.0187055555,42.5900279 0.00136797395,29.0630279 C0.0740150328,12.9900279 11.1718092,-0.0219721438 24.8351915,2.78562355e-05 Z" id="path-9"></path>
        <path d="M15.4645404,1.00050051 C9.55308206,3.79244806 0,11.9603697 0,19.5227615 L0,44 L42,44 L42,44 C48.627417,44 54,38.627417 54,32 L54,19.5227615 C54,11.3611531 42.6789571,2.49425321 36.9643701,0.441062333 C33.3642613,4.63296405 21.3687523,6.02038374 15.4645404,1.00050051 Z" id="path-11"></path>
        <path d="M39.2668616,0.478561494 C45.2643946,3.63986516 54,11.3534238 54,18.5227615 L54,31 C54,37.627417 48.627417,43 42,43 L0,43 L0,18.5227615 C0,11.6402058 7.91269862,4.25609738 13.7915707,0.879455124 C14.8701839,2.70834023 17.7176589,10 26.382983,10 C34.9846748,10 39.0916006,2.28959006 39.2668616,0.478561494 Z" id="path-13"></path>
    </defs>
    <g id="illustrasjoner" stroke="none" stroke-width="1" fill="none" fill-rule="evenodd">
        <g id="KvitteringNY">
            <g id="illustrationKvittering">
                <g id="illustration/kvittering" transform="translate(0.000000, 0.000000)">
                    <g transform="translate(0.000000, 52.000000)">
                        <g id="tavle" transform="translate(16.000000, 0.000000)">
                            <polygon id="Clip-4" fill="#EFEFEF" points="0 52.6119871 50.9064225 52.6119871 50.9064225 0 0 0"></polygon>
                            <path d="M5.47667967,3.74727722 C5.47667967,4.70836656 4.69848868,5.48695317 3.7392831,5.48695317 C2.77951542,5.48695317 2.00301554,4.70836656 2.00301554,3.74727722 C2.00301554,2.7872979 2.77951542,2.00588796 3.7392831,2.00588796 C4.69848868,2.00588796 5.47667967,2.7872979 5.47667967,3.74727722 Z" id="skrue" fill="#838688"></path>
                            <path d="M48.7047271,3.74727722 C48.7047271,4.70836656 47.927682,5.48695317 46.968474,5.48695317 C46.0075773,5.48695317 45.2321968,4.70836656 45.2321968,3.74727722 C45.2321968,2.7872979 46.0075773,2.00588796 46.968474,2.00588796 C47.927682,2.00588796 48.7047271,2.7872979 48.7047271,3.74727722 Z" id="skrue" fill="#838688"></path>
                            <g id="postIt" transform="translate(27.000000, 18.000000)">
                                <path d="M15.4987645,12.7981564 C17.2381028,13.150316 3.29959359,12.54697 1.37666903,12.7981564 C-0.54688813,13.0506313 0.342833717,0.157131571 0.342833717,0.157131571 L14.4643126,0.157131571 C14.4643126,0.157131571 13.7556735,12.4466411 15.4987645,12.7981564 Z" id="Clip-19" fill="#E9C264"></path>
                                <mask id="mask-2" fill="white">
                                    <use xlink:href="#path-1"></use>
                                </mask>
                                <use id="Clip-22" fill="#DAB25B" xlink:href="#path-1"></use>
                            </g>
                            <g id="postIt-Copy" transform="translate(6.000000, 25.000000)">
                                <path d="M15.4987645,12.7981564 C17.2381028,13.150316 3.29959359,12.54697 1.37666903,12.7981564 C-0.54688813,13.0506313 0.342833717,0.157131571 0.342833717,0.157131571 L14.4643126,0.157131571 C14.4643126,0.157131571 13.7556735,12.4466411 15.4987645,12.7981564 Z" id="Clip-19" fill="#E9C264"></path>
                                <mask id="mask-4" fill="white">
                                    <use xlink:href="#path-3"></use>
                                </mask>
                                <use id="Clip-22" fill="#DAB25B" xlink:href="#path-3"></use>
                            </g>
                            <g id="postIt-Copy-2" transform="translate(10.000000, 5.000000)">
                                <path d="M15.4987645,12.7981564 C17.2381028,13.150316 3.29959359,12.54697 1.37666903,12.7981564 C-0.54688813,13.0506313 0.342833717,0.157131571 0.342833717,0.157131571 L14.4643126,0.157131571 C14.4643126,0.157131571 13.7556735,12.4466411 15.4987645,12.7981564 Z" id="Clip-19" fill="#E9C264"></path>
                                <mask id="mask-6" fill="white">
                                    <use xlink:href="#path-5"></use>
                                </mask>
                                <use id="Clip-22" fill="#DAB25B" xlink:href="#path-5"></use>
                            </g>
                        </g>
                        <g id="ark" transform="translate(211.137441, 77.929204)">
                            <path d="M32.412068,31.6101103 L32.3258472,2.63832323 C32.3223984,1.51315039 31.3935137,0.605096334 30.249652,0.608488815 L7.66901723,0.674076779 L0.483956266,7.4036281 L0.556381681,31.7017073" id="Fill-1" fill="#EFEFEF"></path>
                            <path d="M7.66878731,1.57661856 L7.68258263,6.24806479 C7.68603146,7.37436846 6.76174521,8.28807665 5.61903312,8.29146913 L0.483726344,8.30616988 L7.66878731,1.57661856 Z" id="Fill-3" fill="#BABBBB"></path>
                            <polygon id="Fill-5" fill="#8E9294" points="27.4202325 17.8714672 5.58914326 17.9347935 5.58339522 16.245338 27.4156341 16.1820117"></polygon>
                            <polygon id="Fill-7" fill="#8E9294" points="27.4316136 21.6967156 5.6005244 21.7600419 5.59477635 20.0694556 27.4270152 20.0061293"></polygon>
                            <polygon id="Fill-9" fill="#8E9294" points="27.4429948 25.519137 5.61190554 25.5824633 5.60615749 23.8930078 27.4383963 23.8296815"></polygon>
                            <polygon id="Fill-11" fill="#8E9294" points="27.2875675 28.4549899 5.4564783 28.5183163 5.45073025 26.8299916 27.2829691 26.7677961"></polygon>
                        </g>
                        <g id="blyanter" transform="translate(248.137441, 70.929204)">
                            <polygon id="Fill-27" fill="#E1D1B6" points="5.41459253 12.5590519 2.94408117 8.61925074 1.78642415 13.1052413 3.74995761 13.3155752"></polygon>
                            <polygon id="Fill-29" fill="#E8C164" points="7.55562574 34.3005575 8.76616481 34.1173635 5.46908404 12.9188811 4.26084418 13.0998134"></polygon>
                            <polygon id="Fill-31" fill="#DAB25A" points="3.05191457 13.2830073 6.34669612 34.480359 7.55608558 34.3005575 4.26015442 13.0998134"></polygon>
                            <polygon id="Fill-33" fill="#E8C164" points="6.34681108 34.480472 3.05202953 13.2831204 1.84034085 13.4640527 5.13857123 34.6625352"></polygon>
                            <polygon id="Fill-41" fill="#555757" points="2.94592055 8.61879841 2.53665947 10.2064795 3.81847435 10.0142389"></polygon>
                            <g id="Group-49" transform="translate(15.942340, 0.225461)">
                                <mask id="mask-8" fill="white">
                                    <use xlink:href="#path-7"></use>
                                </mask>
                                <g id="Clip-48"></g>
                                <polygon id="Fill-47" fill="#E1D1B6" mask="url(#mask-8)" points="3.63555979 4.84344501 2.44111525 0.366501022 0.00509217995 4.32100295 1.82032598 5.08770363"></polygon>
                            </g>
                            <polygon id="Fill-50" fill="#51808B" points="15.1791479 26.4773834 16.3885373 26.6503999 19.5235231 5.42703928 18.3141337 5.25402275"></polygon>
                            <polygon id="Fill-52" fill="#10586F" points="17.1026749 5.08055389 13.9676891 26.3039145 15.1793778 26.4769311 18.3143636 5.25583207"></polygon>
                            <polygon id="Fill-54" fill="#51808B" points="13.967919 26.3041407 17.1040544 5.08078006 15.8912161 4.90776353 12.7562303 26.1311242"></polygon>
                            <polygon id="Fill-62" fill="#555757" points="18.3829953 0.592188555 17.5219376 1.99215235 18.8049021 2.17760797"></polygon>
                            <polygon id="Fill-66" fill="#E1D1B6" points="13.602803 16.5976874 11.9462153 12.2654892 9.93669746 16.4484182 11.8220575 17.02514"></polygon>
                            <polygon id="Fill-68" fill="#96AA47" points="11.9373633 27.7999986 13.1605481 27.8474933 13.5870533 16.9598912 12.3650181 16.9112657"></polygon>
                            <polygon id="Fill-70" fill="#727D33" points="11.1437877 16.8613962 10.7172825 27.7489983 11.9370184 27.7998855 12.3658229 16.9111526"></polygon>
                            <polygon id="Fill-72" fill="#96AA47" points="10.715788 27.7492245 11.1422932 16.8616224 9.92025805 16.8107352 9.49375283 27.7017297"></polygon>
                            <polygon id="Fill-80" fill="#555757" points="11.9464452 12.2656023 11.2336872 13.7458548 12.5338958 13.7990037"></polygon>
                            <polygon id="Fill-82" fill="#C42D35" points="17.5494133 22.6454631 0.86742611 22.6940887 2.9171803 39.6044752 15.5973759 39.5682888"></polygon>
                            <path d="M4.97808571,12.3642104 C4.75161259,12.3981352 4.64125005,12.7079818 4.34120191,12.7520841 C4.28831986,12.758869 4.2457843,12.7554766 4.20554795,12.7464299 L4.26072922,13.1003788 L5.46896908,12.9183156 L5.41723664,12.589245 C5.41723664,12.589245 5.20685805,12.3302856 4.97808571,12.3642104" id="Fill-35" fill="#E8C164"></path>
                            <path d="M4.20577788,12.7467692 C3.9965489,12.7015361 3.87469027,12.4855482 3.55509876,12.5307812 C3.23205841,12.5805376 3.18377481,12.8236654 2.99753802,12.9299632 L3.05156968,13.2827812 L4.26095915,13.0995872 L4.20577788,12.7467692 Z" id="Fill-37" fill="#DAB25A"></path>
                            <path d="M2.99719314,12.9299632 C2.96155524,12.9491872 2.92016929,12.9650188 2.86958646,12.9729346 C2.56608948,13.0170368 2.37065583,12.7580775 2.14188348,12.7920023 C1.91541036,12.8247963 1.79355173,13.1357737 1.79355173,13.1357737 L1.84068573,13.4648443 L3.05237441,13.2827812 L2.99719314,12.9299632 Z" id="Fill-39" fill="#E8C164"></path>
                            <path d="M19.2194514,4.75747663 C18.9918286,4.72355182 18.7952454,4.9870345 18.4905988,4.94406308 C18.4423152,4.93614729 18.4020788,4.92144654 18.3664409,4.89996083 L18.3135589,5.25390967 L19.5240979,5.4269262 L19.5735312,5.09785555 C19.5735312,5.09785555 19.4470741,4.79027061 19.2194514,4.75747663" id="Fill-56" fill="#51808B"></path>
                            <path d="M18.3650614,4.90030007 C18.1788246,4.79852565 18.1293914,4.55426702 17.806351,4.50790311 C17.4833107,4.46153921 17.3637513,4.68091964 17.1568215,4.72841437 L17.1027899,5.08236322 L18.3144786,5.25311809 L18.3650614,4.90030007 Z" id="Fill-58" fill="#10586F"></path>
                            <path d="M17.155327,4.72864054 C17.1139411,4.73768716 17.0714055,4.73994881 17.0231219,4.73203302 C16.7184753,4.6890616 16.6081128,4.38486914 16.3793405,4.34868268 C16.1505681,4.31815035 15.9413391,4.57824055 15.9413391,4.57824055 L15.8919059,4.90844203 L17.1047442,5.08032773 L17.155327,4.72864054 Z" id="Fill-60" fill="#51808B"></path>
                            <path d="M13.213775,16.3239142 C12.9838531,16.3137367 12.8171597,16.5964435 12.5102139,16.5828735 C12.4607806,16.5794811 12.4182451,16.5704344 12.3791583,16.5546029 L12.3642134,16.9108134 L13.5873982,16.9594389 L13.6034927,16.6281066 C13.6034927,16.6281066 13.443697,16.3318299 13.213775,16.3239142" id="Fill-74" fill="#96AA47"></path>
                            <path d="M12.3797332,16.5543767 C12.1820003,16.4684338 12.1072756,16.2332218 11.7819361,16.2207827 C11.4565965,16.2083436 11.3600293,16.4379015 11.157698,16.5034895 L11.1439027,16.8630925 L12.3659378,16.9105872 L12.3797332,16.5543767 Z" id="Fill-76" fill="#727D33"></path>
                            <path d="M11.1579279,16.5034895 C11.1176916,16.5170594 11.075156,16.526106 11.0257228,16.5238444 C10.7176274,16.5125361 10.5750758,16.2151286 10.3451538,16.2083436 C10.1140822,16.2004279 9.93359352,16.4786113 9.93359352,16.4786113 L9.92094781,16.8099436 L11.1441326,16.8630925 L11.1579279,16.5034895 Z" id="Fill-78" fill="#96AA47"></path>
                        </g>
                        <g id="kvinne/-sideprofil/-A" transform="translate(145.000000, 14.000000)">
                            <g id="damme/-hår/-rund" transform="translate(1.000000, 0.000000)" stroke-width="1">
                                <g id="hårfarge/-grå" transform="translate(7.647059, 0.000000)">
                                    <mask id="mask-10" fill="white">
                                        <use xlink:href="#path-9"></use>
                                    </mask>
                                    <use id="Mask" fill="#F5B773" xlink:href="#path-9"></use>
                                    <g id="hårfarge/-sort" mask="url(#mask-10)" fill="#303339">
                                        <g transform="translate(-9.558824, -12.000000)">
                                            <rect x="0" y="0" width="66" height="79"></rect>
                                        </g>
                                    </g>
                                </g>
                            </g>
                            <path d="M49.5947489,37.1819249 C49.4835958,36.9653369 44.8877495,34.6919404 42.9420292,21 C34.0600721,27.8686445 16.0769391,24.9567403 12.4037404,28.6487621 C12.3903608,28.9144834 9.65718775,42.8272487 18.5964097,50.6474763 C20.0469899,51.9164757 22.2322107,52.5510886 22.0860649,52.9993053 C20.8836363,53.5563359 19.1121457,54.852662 19.1121457,54.852662 C19.1121457,54.852662 23.3255623,79 33,79 C42.7073719,79 46.5254054,53.8657216 46.5254054,53.8657216 C46.5254054,53.8657216 43.8291957,52.677988 44.0473852,51.6381654 C44.2666038,50.5973402 48.2290065,45.3651377 48.2290065,45.3651377 C48.2290065,45.3651377 51.2177902,44.2290539 52.8758242,42.8272487 C54.5348873,41.4254436 54.2055448,38.4072509 52.8758242,37.4857496 C51.5368408,36.5582319 49.6400335,37.166884 49.5947489,37.1819249 Z" id="Fill-160-Copy-2" fill="#E7E5E2"></path>
                            <g id="kropp/sideprofil/-vhals" transform="translate(7.000000, 50.000000)" stroke-width="1">
                                <g transform="translate(0.000000, 2.000000)">
                                    <g>
                                        <g id="+20/-Blå">
                                            <mask id="mask-12" fill="white">
                                                <use xlink:href="#path-11"></use>
                                            </mask>
                                            <use id="Mask" fill="#D8A25D" xlink:href="#path-11"></use>
                                            <g id="Farge/-Dyp-blå/-80" mask="url(#mask-12)" fill="#CCDEE6">
                                                <g transform="translate(-33.000000, -27.000000)" id="Fill-21">
                                                    <polygon points="0 100 126 100 126 0 0 0"></polygon>
                                                </g>
                                            </g>
                                        </g>
                                        <path d="M13.7454545,1.80289687 C14.7882931,3.49391057 19.473852,11.9106404 26.382983,17.0952303 C33.245276,11.9897542 39.2727273,2.94149184 39.2727273,1.36624439 C38.5729207,0.959720983 37.8768943,0.596638883 37.1861459,0.273580362 C33.7694118,3.22349746 24.5288041,6.89452382 15.4131766,0.847902036 C14.3402829,1.39575288 13.7454545,1.80289687 13.7454545,1.80289687 Z" id="Fill-418" fill="#FFFFFF"></path>
                                    </g>
                                </g>
                            </g>
                            <g id="ansikt/-kvinne/-profil/-bli-" transform="translate(18.000000, 30.000000)" stroke-width="1">
                                <g id="ansikt/-kvinne/-profil/-undrende">
                                    <path d="M6.03064283,4.8683996 C7.15164283,5.0713996 7.64464283,2.9723996 7.42164283,1.5553996 C7.37964283,1.2873996 7.10564283,0.0583996046 6.44364283,0.00339960455 C5.78164283,-0.0516003954 5.43564283,0.577399605 5.38564283,0.686399605 C4.78564283,1.9993996 4.80364283,4.6453996 6.03064283,4.8683996" id="Fill-244" fill="#635E59"></path>
                                    <path d="M5.16638112,10.5266445 C3.30841693,10.6943251 1.94135736,10.2326763 1.06520241,9.14169824 C0.110130983,7.95245427 0.687843025,7.10591349 2.24984303,5.91291349 C3.56784303,4.93391349 6.49885032,4.77975982 7.45010157,3.79515372" id="Fill-246" stroke="#B7B1A9" stroke-linecap="round" stroke-linejoin="round"></path>
                                    <path d="M11.734,16.25 C11.734,16.25 10.292,16.583 9.196,16.392 C7.301,16.06 7,15 7,15" id="Stroke-247" stroke="#D19E9C" stroke-width="1.013" stroke-linecap="round"></path>
                                    <path d="M15.2606672,5.86986838 C16.5976672,6.09086838 17.1516672,3.99686838 16.8636672,2.57586838 C16.8086672,2.30586838 16.4636672,1.07086838 15.6756672,1.00486838 C14.8866672,0.938868383 14.4846672,1.56386838 14.4276672,1.67286838 C13.7346672,2.97686838 13.7976672,5.62686838 15.2606672,5.86986838" id="Fill-238-Copy" fill="#635E59"></path>
                                </g>
                            </g>
                        </g>
                        <g id="mann/-sideprofil/-A" transform="translate(110.000000, 62.000000) scale(-1, 1) translate(-110.000000, -62.000000) translate(76.000000, 14.000000)">
                            <g id="Group" stroke-width="1" fill-rule="evenodd" transform="translate(14.000000, 7.000000)" fill="#E7E5E2">
                                <path d="M37.843227,37.3738836 C37.5224128,37.3738836 37.2635252,37.0854806 37.2635252,36.7228066 L37.2635252,28.8973434 C37.2635252,27.9713673 37.9386972,27.2151534 38.7635252,27.2151534 C39.5917935,27.2151534 40.2635252,27.9684736 40.2635252,28.8963789 L40.2635252,35.6887999 C40.2635252,36.6195988 39.5909334,37.3738836 38.7609449,37.3738836 L37.843227,37.3738836 Z" id="Fill-1-Copy" transform="translate(38.763525, 32.294518) rotate(15.000000) translate(-38.763525, -32.294518) "></path>
                                <path d="M33.2817274,46.4948332 C34.3127865,47.2524711 31.3861804,63.9860249 19.5892345,63.9999921 C8.21138514,64.0134631 7.75605052,47.6687089 7.78707458,46.8996223 C8.30857122,46.6161154 9.04130124,46.3759504 9.71024921,46.1235847 C8.83296002,45.9581338 7.3161293,45.8559523 6.16648892,44.5758111 C2.55601669,40.5554982 0,29.8726673 0,23.6253764 C0,10.5796339 7.42014378,0 19.0133155,0 C30.604511,0 40,10.5796339 40,23.6253764 C40,30.2938936 38.037581,35.1424332 34.4517947,38.7628982 C33.3464937,39.8788887 31.4641646,42.5606925 31.5048129,45.5053351 C32.1005194,45.8761836 32.6619404,46.1235847 33.2817274,46.4948332 Z" id="Fill-5-Copy"></path>
                            </g>
                            <g id="kropp/sideprofil/-rundt-hals" transform="translate(8.000000, 50.000000)" stroke-width="1" fill-rule="evenodd">
                                <g transform="translate(0.000000, 3.000000)" id="+20/-Blå">
                                    <g>
                                        <mask id="mask-14" fill="white">
                                            <use xlink:href="#path-13"></use>
                                        </mask>
                                        <use id="Mask" fill="#D8A25D" xlink:href="#path-13"></use>
                                        <g id="Farge/Grønn/-+20" mask="url(#mask-14)" fill="#117938">
                                            <g transform="translate(-33.000000, -28.000000)" id="Fill-78">
                                                <polygon points="0 100 126 100 126 0 0 0"></polygon>
                                            </g>
                                        </g>
                                    </g>
                                </g>
                            </g>
                            <g id="mann/-hår/-sideprofil/-lue" transform="translate(12.000000, 2.000000)" stroke-width="1" fill-rule="evenodd" fill="#344144">
                                <g id="Group-6" transform="translate(1.000000, -1.000000)">
                                    <path d="M41.9564372,28.6817808 C42.0619256,26.0037423 41.9554605,23.3156654 41.1965302,20.9332038 L39.9589953,20.2650885 C36.5989953,10.0314346 30.6760186,4.77239615 23.2009953,3.64808846 C16.0443907,2.57174231 9.05676279,7.21731923 4.14764651,14.8788962 L2.50085581,15.1131269 C1.02792558,17.4487423 0.749553488,19.90705 0.305134884,22.5873192 C0.305134884,22.5873192 9.2071814,21.0436269 21.3715535,22.8728577 C33.5369023,24.7032038 41.9564372,28.6817808 41.9564372,28.6817808 C41.9310419,28.52005 41.9828093,28.8412808 41.9564372,28.6817808" id="Fill-117"></path>
                                    <path d="M26.5908837,4.46276538 C26.8106512,2.56215 25.6385581,0.818803846 23.9751628,0.568957692 C22.3107907,0.319111538 20.7851163,1.65645769 20.5653488,3.55595769 C20.3455814,5.45657308 21.5176744,7.19991923 23.1810698,7.44976538 C24.8454419,7.70072692 26.3711163,6.36338077 26.5908837,4.46276538" id="Fill-119"></path>
                                </g>
                            </g>
                            <g id="ansikt/-mann/-profil/-undrende" transform="translate(8.000000, 26.000000)">
                                <g id="Group-2-Copy" stroke-width="1" fill-rule="evenodd" transform="translate(10.000000, 1.000000)">
                                    <path d="M3.1437,5.6559 C4.2257,6.0139 5.0077,4.0049 4.9847,2.5709 C4.9807,2.2989 4.8817,1.0439 4.2337,0.8969 C3.5867,0.7489 3.1557,1.3239 3.0907,1.4259 C2.3127,2.6409 1.9607,5.2629 3.1437,5.6559" id="Fill-224" fill="#635E59"></path>
                                    <path d="M12.2985,5.861 C13.6355,6.083 14.1895,3.988 13.9015,2.567 C13.8465,2.297 13.5015,1.062 12.7135,0.996 C11.9245,0.93 11.5225,1.555 11.4655,1.664 C10.7725,2.969 10.8355,5.618 12.2985,5.861" id="Fill-225" fill="#635E59"></path>
                                    <path d="M-1.82076576e-13,5.79152729 C0.783322134,6.49667514 1.70206866,6.23009992 1.73347978,6.2257094 C2.56490361,6.10949643 3.36153413,6.15625747 3.74311793,6.62456486 C4.70811793,7.80956486 4.43111793,9.17856486 2.80611793,10.1905649 C1.99411793,10.6955649 0.844117928,10.9025649 0.139117928,10.5905649" id="Stroke-65-Copy" stroke="#D1BFA3" stroke-linecap="round" transform="translate(2.149693, 8.264714) scale(-1, 1) translate(-2.149693, -8.264714) "></path>
                                </g>
                                <path d="M19.734,17.25 C19.734,17.25 18.292,17.583 17.196,17.392 C15.301,17.06 15,16 15,16" id="Stroke-247" stroke="#593A32" stroke-width="1.013" stroke-linecap="round"></path>
                            </g>
                        </g>
                        <g id="nav-id/-kort" transform="translate(181.000000, 89.000000)">
                            <g id="NAV-Copy-2" transform="translate(0.000000, -1.000000)">
                                <g id="Group-11">
                                    <g id="Navansatt-dame">
                                        <g transform="translate(0.000000, 0.750000)">
                                            <path d="M16.7475923,12.25 L1.25148066,12.25 C0.559921718,12.25 0,11.6815537 0,10.9794661 L0,2.52147502 C0,1.81938741 0.559921718,1.25 1.25148066,1.25 L16.7475923,1.25 C17.4391513,1.25 18,1.81938741 18,2.52147502 L18,10.9794661 C18,11.6815537 17.4391513,12.25 16.7475923,12.25" id="Fill-97" fill="#D2242A"></path>
                                            <path d="M12.8637337,7.25829484 C12.8637337,9.33546875 11.1718134,11.0214062 9.08398732,11.0214062 C6.99261051,11.0214062 5.29980254,9.33546875 5.29980254,7.25829484 C5.29980254,5.18112092 6.99261051,3.49518342 9.08398732,3.49518342 C11.1718134,3.49518342 12.8637337,5.18112092 12.8637337,7.25829484" id="Fill-98" fill="#FFFFFF"></path>
                                            <polygon id="Fill-99" fill="#FFFFFF" points="4.18416486 8.91703125 3.44650181 8.91703125 4.23476268 6.99440897 4.97420109 6.99440897"></polygon>
                                            <polygon id="Fill-100" fill="#FFFFFF" points="13.4809384 8.91703125 13.0237826 8.91703125 13.8120435 6.99440897 14.2691993 6.99440897"></polygon>
                                            <polygon id="Fill-101" fill="#FFFFFF" points="14.7426884 8.91703125 14.5491739 8.91703125 15.3356594 6.99440897 15.5291739 6.99440897"></polygon>
                                            <path d="M6.21091848,8.90775815 L6.79146196,8.90775815 C6.82164312,8.90775815 6.84472283,8.8847962 6.84472283,8.85565217 L6.84472283,7.0566712 C6.84472283,7.02752717 6.82164312,7.00456522 6.79146196,7.00456522 L6.20470471,7.00456522 C6.16564674,7.00456522 6.13724094,7.03459239 6.13724094,7.07256793 L5.90644384,7.63866848 C5.89224094,7.6678125 5.91532065,7.70313859 5.94638949,7.70313859 L6.11238587,7.70313859 C6.13724094,7.70313859 6.15854529,7.72168478 6.15854529,7.7490625 L6.15854529,8.85565217 C6.15854529,8.8847962 6.181625,8.90775815 6.21091848,8.90775815" id="Fill-102" fill="#C52D35"></path>
                                            <path d="M7.47222464,8.90775815 L8.05454348,8.90775815 C8.08472464,8.90775815 8.11046739,8.8847962 8.11046739,8.85565217 L8.11046739,7.0566712 C8.11046739,7.02752717 8.08472464,7.00456522 8.05454348,7.00456522 L7.1491087,7.00456522 C7.11093841,7.00456522 7.08075725,7.03459239 7.08075725,7.07256793 L6.84907246,7.63866848 L6.76918116,7.70313859 L7.23255072,7.70313859 C7.33552174,7.70313859 7.41985145,7.78438859 7.41985145,7.88860054 L7.41985145,8.85565217 C7.41985145,8.8847962 7.44293116,8.90775815 7.47222464,8.90775815" id="Fill-103" fill="#C52D35"></path>
                                            <path d="M10.0762373,7.00474185 L9.49391848,7.00474185 C9.464625,7.00474185 9.44065761,7.0277038 9.44065761,7.05684783 L9.44065761,8.8558288 C9.44065761,8.88497283 9.464625,8.90793478 9.49391848,8.90793478 L10.0824511,8.90793478 C10.1215091,8.90793478 10.1499149,8.87790761 10.1499149,8.83993207 L10.380712,8.27383152 C10.3949149,8.2429212 10.3727228,8.20936141 10.3372156,8.20936141 L10.1765453,8.20936141 C10.1499149,8.20936141 10.1312736,8.18816576 10.1312736,8.16432065 L10.1312736,7.05684783 C10.1312736,7.0277038 10.1046431,7.00474185 10.0762373,7.00474185" id="Fill-104" fill="#C52D35"></path>
                                            <path d="M7.68109601,8.90775815 L8.06368659,8.90775815 C8.1009692,8.90775815 8.13115036,8.87684783 8.13115036,8.84063859 L8.36194746,8.27277174 C8.37526268,8.24274457 8.35307065,8.20830163 8.31933877,8.20830163 L8.1577808,8.20830163 L7.68109601,8.90775815 Z" id="Fill-105" fill="#C52D35"></path>
                                            <path d="M11.6344728,7.00474185 L12.3268641,7.00474185 C12.360596,7.00474185 12.3845634,7.03653533 12.3703605,7.06744565 L11.6371359,8.87879076 C11.6318098,8.89733696 11.6149438,8.90793478 11.5945272,8.90793478 L10.9678243,8.90793478 L11.5892011,7.03565217 C11.5963025,7.01710598 11.6149438,7.00474185 11.6344728,7.00474185" id="Fill-106" fill="#C52D35"></path>
                                            <path d="M10.7663207,7.00474185 L9.78720833,7.00474185 C9.7179692,7.00474185 10.0686033,7.07186141 10.0934583,7.13456522 L10.7858496,8.84788043 C10.8000525,8.88585598 10.8355598,8.90793478 10.8746178,8.90793478 L11.4684764,8.90793478 L10.8577518,7.06921196 C10.8444366,7.02858696 10.807154,7.00474185 10.7663207,7.00474185" id="Fill-107" fill="#C52D35"></path>
                                            <path d="M9.48788225,7.615 C9.48788225,7.99828804 9.43905978,8.02125 9.43905978,8.02125 C9.43905978,8.02125 9.38402355,7.6538587 9.0990779,7.6538587 C8.81945833,7.6538587 8.75554529,7.8163587 8.75554529,7.93735054 C8.75554529,8.07777174 8.89846196,8.20936141 8.97835326,8.20936141 L9.48788225,8.20936141 L9.18695833,8.8726087 C9.17630616,8.8946875 9.15500181,8.90793478 9.13103442,8.90793478 L8.89934964,8.90793478 C8.65701268,8.90793478 8.02409601,8.5917663 8.02409601,7.97974185 C8.02409601,7.36683424 8.49456703,7.00474185 8.8869221,7.00474185 C9.21092572,7.00474185 9.48788225,7.22641304 9.48788225,7.615 Z" id="Fill-108" fill="#C52D35"></path>
                                            <path d="M9.93110145,2.99602582 L8.32528623,2.99602582 C8.20633696,2.99602582 8.11046739,2.90064538 8.11046739,2.78230299 L8.11046739,2.51294158 C8.11046739,2.39548234 8.20633696,2.29921875 8.32528623,2.29921875 L9.93110145,2.29921875 C10.0500507,2.29921875 10.1459203,2.39548234 10.1459203,2.51294158 L10.1459203,2.78230299 C10.1459203,2.90064538 10.0500507,2.99602582 9.93110145,2.99602582" id="Fill-109" fill="#5A1F57"></path>
                                            <polygon id="Fill-110" fill="#C2B5CF" points="8.66331522 2.75 9.59360507 2.75 9.59360507 0.25 8.66331522 0.25"></polygon>
                                        </g>
                                    </g>
                                </g>
                            </g>
                        </g>
                        <polygon id="bord" fill="#525759" points="299 111 299 110 0 110 0 111 0 112 299 112"></polygon>
                    </g>
                </g>
            </g>
        </g>
    </g>
</svg>
