<svg xmlns="http://www.w3.org/2000/svg" xmlns:xlink="http://www.w3.org/1999/xlink" version="1.1" x="0px" y="0px" viewBox="0 0 100 125" enable-background="new 0 0 100 100" xml:space="preserve"><path fill="#000000" d="M67.409,57.317L53.481,71.264V19.683c0-1.987-1.611-3.6-3.6-3.6s-3.601,1.612-3.601,3.6v51.59L32.326,57.316  c-1.404-1.406-3.685-1.406-5.091,0c-1.406,1.405-1.406,3.685,0,5.09l20.099,20.1c0.167,0.167,0.35,0.316,0.546,0.448  c0.048,0.033,0.103,0.053,0.151,0.083c0.151,0.091,0.303,0.181,0.467,0.249c0.068,0.028,0.143,0.042,0.213,0.066  c0.151,0.052,0.3,0.107,0.459,0.139c0.232,0.048,0.471,0.072,0.712,0.072h0.001c0.24,0,0.479-0.024,0.713-0.072  c0.153-0.03,0.299-0.085,0.444-0.135c0.075-0.025,0.154-0.04,0.227-0.07c0.165-0.069,0.318-0.16,0.471-0.252  c0.048-0.028,0.101-0.049,0.147-0.08c0.196-0.132,0.379-0.281,0.545-0.448l20.073-20.101c1.405-1.406,1.403-3.687-0.004-5.091  C71.093,55.909,68.813,55.91,67.409,57.317z"/><text x="0" y="115" fill="#000000" font-size="5px" font-weight="bold" font-family="'Helvetica Neue', Helvetica, Arial-Unicode, Arial, Sans-serif">Created by Lluisa Iborra</text><text x="0" y="120" fill="#000000" font-size="5px" font-weight="bold" font-family="'Helvetica Neue', Helvetica, Arial-Unicode, Arial, Sans-serif">from the Noun Project</text></svg>